<svg width="25" height="25" viewBox="0 0 25 25" fill="none" xmlns="http://www.w3.org/2000/svg">
<mask id="mask0_1184_4979" style="mask-type:alpha" maskUnits="userSpaceOnUse" x="0" y="0" width="25" height="25">
<rect x="0.77832" y="0.468414" width="24" height="24" fill="#D9D9D9"/>
</mask>
<g mask="url(#mask0_1184_4979)">
<path d="M1.77832 17.6684C1.77832 17.1017 1.92415 16.5809 2.21582 16.1059C2.50749 15.6309 2.89499 15.2684 3.37832 15.0184C4.41165 14.5017 5.46165 14.1142 6.52832 13.8559C7.59499 13.5976 8.67832 13.4684 9.77832 13.4684C10.8783 13.4684 11.9617 13.5976 13.0283 13.8559C14.095 14.1142 15.145 14.5017 16.1783 15.0184C16.6617 15.2684 17.0492 15.6309 17.3408 16.1059C17.6325 16.5809 17.7783 17.1017 17.7783 17.6684V18.4684C17.7783 19.0184 17.5825 19.4892 17.1908 19.8809C16.7992 20.2726 16.3283 20.4684 15.7783 20.4684H3.77832C3.22832 20.4684 2.75749 20.2726 2.36582 19.8809C1.97415 19.4892 1.77832 19.0184 1.77832 18.4684V17.6684ZM19.2283 20.4684C19.4117 20.1684 19.5492 19.8476 19.6408 19.5059C19.7325 19.1642 19.7783 18.8184 19.7783 18.4684V17.4684C19.7783 16.7351 19.5742 16.0309 19.1658 15.3559C18.7575 14.6809 18.1783 14.1017 17.4283 13.6184C18.2783 13.7184 19.0783 13.8892 19.8283 14.1309C20.5783 14.3726 21.2783 14.6684 21.9283 15.0184C22.5283 15.3517 22.9867 15.7226 23.3033 16.1309C23.62 16.5392 23.7783 16.9851 23.7783 17.4684V18.4684C23.7783 19.0184 23.5825 19.4892 23.1908 19.8809C22.7992 20.2726 22.3283 20.4684 21.7783 20.4684H19.2283ZM9.77832 12.4684C8.67832 12.4684 7.73665 12.0767 6.95332 11.2934C6.16999 10.5101 5.77832 9.56841 5.77832 8.46841C5.77832 7.36841 6.16999 6.42675 6.95332 5.64341C7.73665 4.86008 8.67832 4.46841 9.77832 4.46841C10.8783 4.46841 11.82 4.86008 12.6033 5.64341C13.3867 6.42675 13.7783 7.36841 13.7783 8.46841C13.7783 9.56841 13.3867 10.5101 12.6033 11.2934C11.82 12.0767 10.8783 12.4684 9.77832 12.4684ZM19.7783 8.46841C19.7783 9.56841 19.3867 10.5101 18.6033 11.2934C17.82 12.0767 16.8783 12.4684 15.7783 12.4684C15.595 12.4684 15.3617 12.4476 15.0783 12.4059C14.795 12.3642 14.5617 12.3184 14.3783 12.2684C14.8283 11.7351 15.1742 11.1434 15.4158 10.4934C15.6575 9.84341 15.7783 9.16841 15.7783 8.46841C15.7783 7.76841 15.6575 7.09341 15.4158 6.44341C15.1742 5.79341 14.8283 5.20175 14.3783 4.66841C14.6117 4.58508 14.845 4.53091 15.0783 4.50591C15.3117 4.48091 15.545 4.46841 15.7783 4.46841C16.8783 4.46841 17.82 4.86008 18.6033 5.64341C19.3867 6.42675 19.7783 7.36841 19.7783 8.46841Z" fill="url(#paint0_linear_1184_4979)" fill-opacity="0.75"/>
</g>
<defs>
<linearGradient id="paint0_linear_1184_4979" x1="-5.98422" y1="17.7255" x2="22.086" y2="17.7255" gradientUnits="userSpaceOnUse">
<stop stop-color="#215AC8"/>
<stop offset="1" stop-color="#7225AF"/>
</linearGradient>
</defs>
</svg>
