<svg width="28" height="29" viewBox="0 0 28 29" fill="none" xmlns="http://www.w3.org/2000/svg">
<path d="M18.1471 21.854C18.2197 21.9265 18.2773 22.0127 18.3165 22.1075C18.3558 22.2024 18.376 22.304 18.376 22.4067C18.376 22.5093 18.3558 22.611 18.3165 22.7058C18.2773 22.8007 18.2197 22.8868 18.1471 22.9594C18.0745 23.032 17.9883 23.0896 17.8935 23.1289C17.7987 23.1682 17.697 23.1884 17.5944 23.1884C17.4917 23.1884 17.3901 23.1682 17.2952 23.1289C17.2004 23.0896 17.1142 23.032 17.0416 22.9594L9.22913 15.1469C9.15649 15.0744 9.09887 14.9882 9.05955 14.8934C9.02024 14.7985 9 14.6969 9 14.5942C9 14.4915 9.02024 14.3899 9.05955 14.295C9.09887 14.2002 9.15649 14.114 9.22913 14.0414L17.0416 6.22895C17.1882 6.08236 17.387 6 17.5944 6C17.8017 6 18.0005 6.08236 18.1471 6.22895C18.2937 6.37554 18.376 6.57437 18.376 6.78168C18.376 6.989 18.2937 7.18782 18.1471 7.33442L10.8864 14.5942L18.1471 21.854Z" fill="#4F4D5E"/>
</svg>
