<svg width="14" height="14" viewBox="0 0 14 14" fill="none" xmlns="http://www.w3.org/2000/svg">
<mask id="mask0_1344_18877" style="mask-type:alpha" maskUnits="userSpaceOnUse" x="0" y="0" width="14" height="14">
<rect width="14" height="14" fill="#D9D9D9"/>
</mask>
<g mask="url(#mask0_1344_18877)">
<path d="M2.33333 10.5C2.16806 10.5 2.02951 10.4441 1.91771 10.3323C1.8059 10.2205 1.75 10.0819 1.75 9.91667C1.75 9.75139 1.8059 9.61285 1.91771 9.50104C2.02951 9.38924 2.16806 9.33333 2.33333 9.33333H8.16667C8.33194 9.33333 8.47049 9.38924 8.58229 9.50104C8.6941 9.61285 8.75 9.75139 8.75 9.91667C8.75 10.0819 8.6941 10.2205 8.58229 10.3323C8.47049 10.4441 8.33194 10.5 8.16667 10.5H2.33333ZM2.33333 7.58333C2.16806 7.58333 2.02951 7.52743 1.91771 7.41562C1.8059 7.30382 1.75 7.16528 1.75 7C1.75 6.83472 1.8059 6.69618 1.91771 6.58437C2.02951 6.47257 2.16806 6.41667 2.33333 6.41667H11.6667C11.8319 6.41667 11.9705 6.47257 12.0823 6.58437C12.1941 6.69618 12.25 6.83472 12.25 7C12.25 7.16528 12.1941 7.30382 12.0823 7.41562C11.9705 7.52743 11.8319 7.58333 11.6667 7.58333H2.33333ZM2.33333 4.66667C2.16806 4.66667 2.02951 4.61076 1.91771 4.49896C1.8059 4.38715 1.75 4.24861 1.75 4.08333C1.75 3.91806 1.8059 3.77951 1.91771 3.66771C2.02951 3.5559 2.16806 3.5 2.33333 3.5H11.6667C11.8319 3.5 11.9705 3.5559 12.0823 3.66771C12.1941 3.77951 12.25 3.91806 12.25 4.08333C12.25 4.24861 12.1941 4.38715 12.0823 4.49896C11.9705 4.61076 11.8319 4.66667 11.6667 4.66667H2.33333Z" fill="#848484"/>
</g>
</svg>
