<svg width="24" height="25" viewBox="0 0 24 25" fill="none" xmlns="http://www.w3.org/2000/svg">
<mask id="mask0_1184_4963" style="mask-type:alpha" maskUnits="userSpaceOnUse" x="0" y="0" width="24" height="25">
<rect y="0.468414" width="24" height="24" fill="#D9D9D9"/>
</mask>
<g mask="url(#mask0_1184_4963)">
<path d="M4 22.4684C3.71667 22.4684 3.47917 22.3726 3.2875 22.1809C3.09583 21.9893 3 21.7517 3 21.4684V17.4684C3 16.9184 3.19583 16.4476 3.5875 16.0559C3.97917 15.6642 4.45 15.4684 5 15.4684H19C19.55 15.4684 20.0208 15.6642 20.4125 16.0559C20.8042 16.4476 21 16.9184 21 17.4684V21.4684C21 21.7517 20.9042 21.9893 20.7125 22.1809C20.5208 22.3726 20.2833 22.4684 20 22.4684H4ZM5 13.4684V10.4684C5 9.91842 5.19583 9.44758 5.5875 9.05592C5.97917 8.66425 6.45 8.46842 7 8.46842H11V7.01842C10.7 6.81842 10.4583 6.57675 10.275 6.29342C10.0917 6.01008 10 5.66842 10 5.26842C10 5.01842 10.05 4.77258 10.15 4.53092C10.25 4.28925 10.4 4.06842 10.6 3.86842L11.65 2.81842C11.6833 2.78508 11.8 2.73508 12 2.66842C12.0333 2.66842 12.15 2.71842 12.35 2.81842L13.4 3.86842C13.6 4.06842 13.75 4.28925 13.85 4.53092C13.95 4.77258 14 5.01842 14 5.26842C14 5.66842 13.9083 6.01008 13.725 6.29342C13.5417 6.57675 13.3 6.81842 13 7.01842V8.46842H17C17.55 8.46842 18.0208 8.66425 18.4125 9.05592C18.8042 9.44758 19 9.91842 19 10.4684V13.4684H5Z" fill="url(#paint0_linear_1184_4963)" fill-opacity="0.75"/>
</g>
<defs>
<linearGradient id="paint0_linear_1184_4963" x1="-3.35117" y1="19.0741" x2="19.6154" y2="19.0741" gradientUnits="userSpaceOnUse">
<stop stop-color="#215AC8"/>
<stop offset="1" stop-color="#7225AF"/>
</linearGradient>
</defs>
</svg>
