<svg width="20" height="19" viewBox="0 0 20 19" fill="none" xmlns="http://www.w3.org/2000/svg">
<mask id="mask0_1344_15995" style="mask-type:alpha" maskUnits="userSpaceOnUse" x="0" y="0" width="20" height="19">
<rect x="0.5" width="19" height="19" fill="#D9D9D9"/>
</mask>
<g mask="url(#mask0_1344_15995)">
<path d="M7.67064 13.854C7.27074 13.854 6.93226 13.7154 6.65519 13.4383C6.37811 13.1613 6.23956 12.8228 6.23956 12.4229V3.4101C6.23956 3.0102 6.37811 2.67171 6.65519 2.39463C6.93226 2.11755 7.27074 1.979 7.67064 1.979H14.3084C14.7083 1.979 15.0468 2.11755 15.3239 2.39463C15.601 2.67171 15.7395 3.0102 15.7395 3.4101V12.4229C15.7395 12.8228 15.601 13.1613 15.3239 13.4383C15.0468 13.7154 14.7083 13.854 14.3084 13.854H7.67064ZM4.89983 16.6248C4.49994 16.6248 4.16146 16.4862 3.88438 16.2091C3.60729 15.9321 3.46875 15.5936 3.46875 15.1937V5.58716C3.46875 5.41868 3.52559 5.27761 3.63926 5.16394C3.75294 5.05027 3.89401 4.99343 4.06248 4.99343C4.23096 4.99343 4.37204 5.05027 4.48573 5.16394C4.5994 5.27761 4.65623 5.41868 4.65623 5.58716V15.1937C4.65623 15.2546 4.6816 15.3104 4.73235 15.3612C4.78311 15.4119 4.83893 15.4373 4.89983 15.4373H12.1313C12.2998 15.4373 12.4409 15.4941 12.5546 15.6078C12.6683 15.7215 12.7251 15.8625 12.7251 16.031C12.7251 16.1995 12.6683 16.3406 12.5546 16.4543C12.4409 16.5679 12.2998 16.6248 12.1313 16.6248H4.89983Z" fill="url(#paint0_linear_1344_15995)" fill-opacity="0.75"/>
</g>
<defs>
<linearGradient id="paint0_linear_1344_15995" x1="-0.860897" y1="14.114" x2="14.7956" y2="14.114" gradientUnits="userSpaceOnUse">
<stop stop-color="#215AC8"/>
<stop offset="1" stop-color="#7225AF"/>
</linearGradient>
</defs>
</svg>
