<svg width="14" height="16" viewBox="0 0 14 16" fill="none" xmlns="http://www.w3.org/2000/svg">
<path d="M5.17064 12.8541C4.77074 12.8541 4.43226 12.7156 4.15519 12.4385C3.87811 12.1614 3.73956 11.823 3.73956 11.4231V2.41028C3.73956 2.01039 3.87811 1.6719 4.15519 1.39481C4.43226 1.11773 4.77074 0.979187 5.17064 0.979187H11.8084C12.2083 0.979187 12.5468 1.11773 12.8239 1.39481C13.101 1.6719 13.2395 2.01039 13.2395 2.41028V11.4231C13.2395 11.823 13.101 12.1614 12.8239 12.4385C12.5468 12.7156 12.2083 12.8541 11.8084 12.8541H5.17064ZM2.39983 15.6249C1.99994 15.6249 1.66146 15.4864 1.38438 15.2093C1.10729 14.9322 0.96875 14.5938 0.96875 14.1939V4.58735C0.96875 4.41887 1.02559 4.27779 1.13926 4.16412C1.25294 4.05045 1.39401 3.99362 1.56248 3.99362C1.73096 3.99362 1.87204 4.05045 1.98573 4.16412C2.0994 4.27779 2.15623 4.41887 2.15623 4.58735V14.1939C2.15623 14.2548 2.1816 14.3106 2.23235 14.3613C2.28311 14.4121 2.33893 14.4375 2.39983 14.4375H9.63134C9.79982 14.4375 9.94091 14.4943 10.0546 14.608C10.1683 14.7217 10.2251 14.8627 10.2251 15.0312C10.2251 15.1997 10.1683 15.3408 10.0546 15.4544C9.94091 15.5681 9.79982 15.6249 9.63134 15.6249H2.39983Z" fill="url(#paint0_linear_1207_6546)" fill-opacity="0.75"/>
<defs>
<linearGradient id="paint0_linear_1207_6546" x1="-3.3609" y1="13.1142" x2="12.2956" y2="13.1142" gradientUnits="userSpaceOnUse">
<stop stop-color="#215AC8"/>
<stop offset="1" stop-color="#7225AF"/>
</linearGradient>
</defs>
</svg>
