<svg width="26" height="20" viewBox="0 0 26 20" fill="none" xmlns="http://www.w3.org/2000/svg">
<g clip-path="url(#clip0_1323_8574)">
<path fill-rule="evenodd" clip-rule="evenodd" d="M24.0251 2.92016C25.1153 2.92016 26 3.78551 26 4.85286C26 5.83629 25.2502 6.64651 24.2798 6.76926L22.0034 14.9265H3.99664L1.72021 6.76926C0.750598 6.64651 0 5.83629 0 4.85286C0 3.78551 0.884711 2.92016 1.97575 2.92016C3.06597 2.92016 3.95068 3.78551 3.95068 4.85286C3.95068 5.37488 3.73882 5.84798 3.39523 6.19519C4.73855 8.91868 7.30615 9.86955 9.29617 9.00881C11.0688 8.24135 11.7226 6.04764 11.944 4.34795C11.2211 3.97582 10.7284 3.23476 10.7284 2.3795C10.7284 1.15136 11.7456 0.15625 13 0.15625C14.2553 0.15625 15.2716 1.15136 15.2717 2.3795C15.2717 3.23476 14.7789 3.97587 14.0561 4.34795C14.2775 6.04759 14.9313 8.2413 16.7039 9.00881C18.6938 9.8695 21.2615 8.91868 22.6048 6.19519C22.2612 5.84798 22.0494 5.37488 22.0494 4.85286C22.0494 3.78551 22.9341 2.92016 24.0251 2.92016ZM21.636 19.8438C22.4485 19.8438 23.1063 19.1998 23.1063 18.4051V18.2855C23.1063 17.4901 22.4485 16.8461 21.636 16.8461H4.36404C3.5523 16.8461 2.89453 17.4901 2.89453 18.2855V18.4051C2.89453 19.1998 3.5523 19.8438 4.36404 19.8438H21.636Z" fill="url(#paint0_linear_1323_8574)" fill-opacity="0.75"/>
</g>
<defs>
<linearGradient id="paint0_linear_1323_8574" x1="-9.17391" y1="16.4687" x2="24" y2="16.4687" gradientUnits="userSpaceOnUse">
<stop stop-color="#215AC8"/>
<stop offset="1" stop-color="#7225AF"/>
</linearGradient>
<clipPath id="clip0_1323_8574">
<rect width="26" height="20" fill="white"/>
</clipPath>
</defs>
</svg>
