<svg width="36" height="36" viewBox="0 0 36 36" fill="none" xmlns="http://www.w3.org/2000/svg">
<path d="M34.8626 17.9871C34.8644 17.9875 34.866 17.988 34.8674 17.9884C34.868 17.9917 34.8683 17.9956 34.8683 18C34.8683 18.0044 34.868 18.0083 34.8675 18.0116C34.866 18.012 34.8644 18.0125 34.8626 18.0129C29.0379 19.5148 25.478 20.6578 23.0679 23.0679C20.6578 25.478 19.5148 29.0379 18.0129 34.8626C18.0125 34.8644 18.012 34.866 18.0116 34.8674C18.0083 34.868 18.0044 34.8683 18 34.8683C17.9956 34.8683 17.9917 34.868 17.9884 34.8675C17.988 34.866 17.9875 34.8644 17.9871 34.8626C16.4852 29.0379 15.3422 25.478 12.9321 23.0679C10.522 20.6578 6.96206 19.5148 1.1374 18.0129C1.13562 18.0125 1.13401 18.012 1.13256 18.0116C1.13203 18.0083 1.13166 18.0043 1.13166 18C1.13166 17.9956 1.13202 17.9917 1.13255 17.9884C1.134 17.988 1.13562 17.9875 1.1374 17.9871C6.96206 16.4852 10.522 15.3422 12.9321 12.9321C15.3422 10.522 16.4852 6.96206 17.9871 1.1374C17.9875 1.13562 17.988 1.13401 17.9884 1.13256C17.9917 1.13203 17.9956 1.13166 18 1.13166C18.0044 1.13166 18.0083 1.13202 18.0116 1.13255C18.012 1.134 18.0125 1.13562 18.0129 1.1374C19.5148 6.96206 20.6578 10.522 23.0679 12.9321C25.478 15.3422 29.0379 16.4852 34.8626 17.9871Z" fill="white" stroke="white" stroke-width="2"/>
</svg>
