<svg width="14" height="14" viewBox="0 0 14 14" fill="none" xmlns="http://www.w3.org/2000/svg">
<mask id="mask0_1344_18987" style="mask-type:alpha" maskUnits="userSpaceOnUse" x="0" y="0" width="14" height="14">
<rect width="14" height="14" fill="#D9D9D9"/>
</mask>
<g mask="url(#mask0_1344_18987)">
<path d="M6.41667 11.0833V8.69167C5.58056 8.55556 4.88542 8.16667 4.33125 7.525C3.77708 6.88333 3.5 6.125 3.5 5.25V2.33333C3.5 2.16806 3.5559 2.02951 3.66771 1.91771C3.77951 1.8059 3.91806 1.75 4.08333 1.75H9.91667C10.0819 1.75 10.2205 1.8059 10.3323 1.91771C10.4441 2.02951 10.5 2.16806 10.5 2.33333V5.25C10.5 6.125 10.2229 6.88333 9.66875 7.525C9.11458 8.16667 8.41944 8.55556 7.58333 8.69167V11.0833H8.75C8.91528 11.0833 9.05382 11.1392 9.16563 11.251C9.27743 11.3628 9.33333 11.5014 9.33333 11.6667C9.33333 11.8319 9.27743 11.9705 9.16563 12.0823C9.05382 12.1941 8.91528 12.25 8.75 12.25H5.25C5.08472 12.25 4.94618 12.1941 4.83438 12.0823C4.72257 11.9705 4.66667 11.8319 4.66667 11.6667C4.66667 11.5014 4.72257 11.3628 4.83438 11.251C4.94618 11.1392 5.08472 11.0833 5.25 11.0833H6.41667ZM4.66667 4.66667H9.33333V2.91667H4.66667V4.66667Z" fill="#848484"/>
</g>
</svg>
