<svg width="27" height="27" viewBox="0 0 27 27" fill="none" xmlns="http://www.w3.org/2000/svg">
<rect width="27" height="27" rx="4" fill="#734498"/>
<mask id="mask0_1328_8580" style="mask-type:alpha" maskUnits="userSpaceOnUse" x="7" y="7" width="13" height="13">
<rect x="7" y="7.5" width="13" height="12" fill="#D9D9D9"/>
</mask>
<g mask="url(#mask0_1328_8580)">
<path d="M9.33333 18.1667H10.2833L16.8 11.65L15.85 10.7L9.33333 17.2167V18.1667ZM8.66667 19.5C8.47778 19.5 8.31944 19.4361 8.19167 19.3083C8.06389 19.1806 8 19.0222 8 18.8333V17.2167C8 17.0389 8.03333 16.8694 8.1 16.7083C8.16667 16.5472 8.26111 16.4056 8.38333 16.2833L16.8 7.88333C16.9333 7.76111 17.0806 7.66667 17.2417 7.6C17.4028 7.53333 17.5722 7.5 17.75 7.5C17.9278 7.5 18.1 7.53333 18.2667 7.6C18.4333 7.66667 18.5778 7.76667 18.7 7.9L19.6167 8.83333C19.75 8.95556 19.8472 9.1 19.9083 9.26667C19.9694 9.43333 20 9.6 20 9.76667C20 9.94444 19.9694 10.1139 19.9083 10.275C19.8472 10.4361 19.75 10.5833 19.6167 10.7167L11.2167 19.1167C11.0944 19.2389 10.9528 19.3333 10.7917 19.4C10.6306 19.4667 10.4611 19.5 10.2833 19.5H8.66667ZM16.3167 11.1833L15.85 10.7L16.8 11.65L16.3167 11.1833Z" fill="white"/>
</g>
</svg>
