<svg width="18" height="18" viewBox="0 0 18 18" fill="none" xmlns="http://www.w3.org/2000/svg">
<path d="M2 16H3.425L13.2 6.225L11.775 4.8L2 14.575V16ZM0 18V13.75L13.2 0.575C13.4 0.391667 13.6208 0.25 13.8625 0.15C14.1042 0.05 14.3583 0 14.625 0C14.8917 0 15.15 0.05 15.4 0.15C15.65 0.25 15.8667 0.4 16.05 0.6L17.425 2C17.625 2.18333 17.7708 2.4 17.8625 2.65C17.9542 2.9 18 3.15 18 3.4C18 3.66667 17.9542 3.92083 17.8625 4.1625C17.7708 4.40417 17.625 4.625 17.425 4.825L4.25 18H0ZM12.475 5.525L11.775 4.8L13.2 6.225L12.475 5.525Z" fill="url(#paint0_linear_1341_9402)" fill-opacity="0.75"/>
<defs>
<linearGradient id="paint0_linear_1341_9402" x1="-6.35117" y1="14.9142" x2="16.6154" y2="14.9142" gradientUnits="userSpaceOnUse">
<stop stop-color="#215AC8"/>
<stop offset="1" stop-color="#7225AF"/>
</linearGradient>
</defs>
</svg>
