<svg width="16" height="21" viewBox="0 0 16 21" fill="none" xmlns="http://www.w3.org/2000/svg">
<path d="M4.99999 19.4684V7.24341C3.61666 6.87675 2.48749 6.14341 1.61249 5.04341C0.73749 3.94341 0.216656 2.69341 0.0499895 1.29341C0.0166562 1.06008 0.0999895 0.864248 0.29999 0.705914C0.49999 0.547581 0.733323 0.468414 0.99999 0.468414C1.26666 0.468414 1.49999 0.539248 1.69999 0.680914C1.89999 0.822581 2.01666 1.01841 2.04999 1.26841C2.23332 2.46841 2.74999 3.46841 3.59999 4.26841C4.44999 5.06841 5.49999 5.46841 6.74999 5.46841H9.24999C9.74999 5.46841 10.2167 5.56008 10.65 5.74341C11.0833 5.92675 11.475 6.19341 11.825 6.54341L15.65 10.3684C15.8333 10.5517 15.925 10.7851 15.925 11.0684C15.925 11.3517 15.8333 11.5851 15.65 11.7684C15.4667 11.9517 15.2333 12.0434 14.95 12.0434C14.6667 12.0434 14.4333 11.9517 14.25 11.7684L11 8.51841V19.4684C11 19.7517 10.9042 19.9892 10.7125 20.1809C10.5208 20.3726 10.2833 20.4684 9.99999 20.4684C9.71666 20.4684 9.47916 20.3726 9.28749 20.1809C9.09582 19.9892 8.99999 19.7517 8.99999 19.4684V14.4684H6.99999V19.4684C6.99999 19.7517 6.90416 19.9892 6.71249 20.1809C6.52082 20.3726 6.28332 20.4684 5.99999 20.4684C5.71666 20.4684 5.47916 20.3726 5.28749 20.1809C5.09582 19.9892 4.99999 19.7517 4.99999 19.4684ZM7.99999 4.46841C7.44999 4.46841 6.97916 4.27258 6.58749 3.88091C6.19582 3.48925 5.99999 3.01841 5.99999 2.46841C5.99999 1.91841 6.19582 1.44758 6.58749 1.05591C6.97916 0.664248 7.44999 0.468414 7.99999 0.468414C8.54999 0.468414 9.02082 0.664248 9.41249 1.05591C9.80416 1.44758 9.99999 1.91841 9.99999 2.46841C9.99999 3.01841 9.80416 3.48925 9.41249 3.88091C9.02082 4.27258 8.54999 4.46841 7.99999 4.46841Z" fill="url(#paint0_linear_1343_13559)" fill-opacity="0.75"/>
<defs>
<linearGradient id="paint0_linear_1343_13559" x1="-5.56105" y1="17.0398" x2="14.7033" y2="17.0398" gradientUnits="userSpaceOnUse">
<stop stop-color="#215AC8"/>
<stop offset="1" stop-color="#7225AF"/>
</linearGradient>
</defs>
</svg>
