<svg width="25" height="25" viewBox="0 0 25 25" fill="none" xmlns="http://www.w3.org/2000/svg">
<mask id="mask0_1182_4742" style="mask-type:alpha" maskUnits="userSpaceOnUse" x="0" y="0" width="25" height="25">
<rect x="0.77832" y="0.468384" width="24" height="24" fill="#D9D9D9"/>
</mask>
<g mask="url(#mask0_1182_4742)">
<path d="M11.7783 15.4684V13.4684H13.7783V15.4684H11.7783ZM10.7783 6.46838H14.7783V4.46838H10.7783V6.46838ZM4.77832 21.4684C4.22832 21.4684 3.75749 21.2726 3.36582 20.8809C2.97415 20.4892 2.77832 20.0184 2.77832 19.4684V15.4684H9.77832V16.4684C9.77832 16.7517 9.87415 16.9892 10.0658 17.1809C10.2575 17.3726 10.495 17.4684 10.7783 17.4684H14.7783C15.0617 17.4684 15.2992 17.3726 15.4908 17.1809C15.6825 16.9892 15.7783 16.7517 15.7783 16.4684V15.4684H22.7783V19.4684C22.7783 20.0184 22.5825 20.4892 22.1908 20.8809C21.7992 21.2726 21.3283 21.4684 20.7783 21.4684H4.77832ZM2.77832 13.4684V8.46838C2.77832 7.91838 2.97415 7.44755 3.36582 7.05588C3.75749 6.66422 4.22832 6.46838 4.77832 6.46838H8.77832V4.46838C8.77832 3.91838 8.97415 3.44755 9.36582 3.05588C9.75749 2.66422 10.2283 2.46838 10.7783 2.46838H14.7783C15.3283 2.46838 15.7992 2.66422 16.1908 3.05588C16.5825 3.44755 16.7783 3.91838 16.7783 4.46838V6.46838H20.7783C21.3283 6.46838 21.7992 6.66422 22.1908 7.05588C22.5825 7.44755 22.7783 7.91838 22.7783 8.46838V13.4684H15.7783V12.4684C15.7783 12.1851 15.6825 11.9476 15.4908 11.7559C15.2992 11.5642 15.0617 11.4684 14.7783 11.4684H10.7783C10.495 11.4684 10.2575 11.5642 10.0658 11.7559C9.87415 11.9476 9.77832 12.1851 9.77832 12.4684V13.4684H2.77832Z" fill="url(#paint0_linear_1182_4742)" fill-opacity="0.75"/>
</g>
<defs>
<linearGradient id="paint0_linear_1182_4742" x1="-4.27854" y1="18.2112" x2="21.2399" y2="18.2112" gradientUnits="userSpaceOnUse">
<stop stop-color="#215AC8"/>
<stop offset="1" stop-color="#7225AF"/>
</linearGradient>
</defs>
</svg>
