<svg width="24" height="25" viewBox="0 0 24 25" fill="none" xmlns="http://www.w3.org/2000/svg">
<mask id="mask0_1139_10983" style="mask-type:alpha" maskUnits="userSpaceOnUse" x="0" y="0" width="24" height="25">
<rect y="0.468414" width="24" height="24" fill="#D9D9D9"/>
</mask>
<g mask="url(#mask0_1139_10983)">
<path d="M12 16.4684C12.8 16.4684 13.5125 16.2309 14.1375 15.7559C14.7625 15.2809 15.2167 14.6684 15.5 13.9184H8.5C8.78333 14.6684 9.2375 15.2809 9.8625 15.7559C10.4875 16.2309 11.2 16.4684 12 16.4684ZM9.5 12.4684C9.91667 12.4684 10.2708 12.3226 10.5625 12.0309C10.8542 11.7392 11 11.3851 11 10.9684C11 10.5517 10.8542 10.1976 10.5625 9.90591C10.2708 9.61425 9.91667 9.46841 9.5 9.46841C9.08333 9.46841 8.72917 9.61425 8.4375 9.90591C8.14583 10.1976 8 10.5517 8 10.9684C8 11.3851 8.14583 11.7392 8.4375 12.0309C8.72917 12.3226 9.08333 12.4684 9.5 12.4684ZM14.5 12.4684C14.9167 12.4684 15.2708 12.3226 15.5625 12.0309C15.8542 11.7392 16 11.3851 16 10.9684C16 10.5517 15.8542 10.1976 15.5625 9.90591C15.2708 9.61425 14.9167 9.46841 14.5 9.46841C14.0833 9.46841 13.7292 9.61425 13.4375 9.90591C13.1458 10.1976 13 10.5517 13 10.9684C13 11.3851 13.1458 11.7392 13.4375 12.0309C13.7292 12.3226 14.0833 12.4684 14.5 12.4684ZM7.625 6.86841L10.425 3.24341C10.625 2.97675 10.8625 2.78091 11.1375 2.65591C11.4125 2.53091 11.7 2.46841 12 2.46841C12.3 2.46841 12.5875 2.53091 12.8625 2.65591C13.1375 2.78091 13.375 2.97675 13.575 3.24341L16.375 6.86841L20.625 8.29341C21.0583 8.42675 21.4 8.67258 21.65 9.03091C21.9 9.38925 22.025 9.78508 22.025 10.2184C22.025 10.4184 21.9958 10.6184 21.9375 10.8184C21.8792 11.0184 21.7833 11.2101 21.65 11.3934L18.9 15.2934L19 19.3934C19.0167 19.9767 18.825 20.4684 18.425 20.8684C18.025 21.2684 17.5583 21.4684 17.025 21.4684C16.9917 21.4684 16.8083 21.4434 16.475 21.3934L12 20.1434L7.525 21.3934C7.44167 21.4267 7.35 21.4476 7.25 21.4559C7.15 21.4642 7.05833 21.4684 6.975 21.4684C6.44167 21.4684 5.975 21.2684 5.575 20.8684C5.175 20.4684 4.98333 19.9767 5 19.3934L5.1 15.2684L2.375 11.3934C2.24167 11.2101 2.14583 11.0184 2.0875 10.8184C2.02917 10.6184 2 10.4184 2 10.2184C2 9.80175 2.12083 9.41425 2.3625 9.05591C2.60417 8.69758 2.94167 8.44341 3.375 8.29341L7.625 6.86841Z" fill="url(#paint0_linear_1139_10983)" fill-opacity="0.75"/>
</g>
<defs>
<linearGradient id="paint0_linear_1139_10983" x1="-5.06568" y1="18.2112" x2="20.4846" y2="18.2112" gradientUnits="userSpaceOnUse">
<stop stop-color="#215AC8"/>
<stop offset="1" stop-color="#7225AF"/>
</linearGradient>
</defs>
</svg>
