<svg width="12" height="9" viewBox="0 0 12 9" fill="none" xmlns="http://www.w3.org/2000/svg">
<path fill-rule="evenodd" clip-rule="evenodd" d="M7.90178 0.240566C8.04026 0.136709 8.20869 0.0805664 8.38178 0.0805664H9.35364C9.59796 0.0805664 9.82889 0.192214 9.98064 0.383701L11.4588 2.24903C11.6931 2.54461 11.689 2.96365 11.4492 3.25469L6.95428 8.70866C6.63813 9.09227 6.05236 9.09771 5.72913 8.72004L1.05305 3.25637C0.804187 2.96559 0.796138 2.53928 1.03384 2.23932L2.50433 0.383701C2.65608 0.192214 2.88701 0.0805664 3.13133 0.0805664H4.10319C4.27629 0.0805664 4.44471 0.136708 4.58319 0.240566L5.76249 1.12504C6.04693 1.33837 6.43804 1.33837 6.72249 1.12504L7.90178 0.240566Z" fill="#646276"/>
</svg>
