<svg width="14" height="14" viewBox="0 0 14 14" fill="none" xmlns="http://www.w3.org/2000/svg">
<mask id="mask0_1344_18963" style="mask-type:alpha" maskUnits="userSpaceOnUse" x="0" y="0" width="14" height="14">
<rect x="14" width="14" height="14" transform="rotate(90 14 0)" fill="#D9D9D9"/>
</mask>
<g mask="url(#mask0_1344_18963)">
<path d="M3.5 2.33317C3.5 2.01234 3.61424 1.73768 3.84271 1.50921C4.07118 1.28074 4.34583 1.1665 4.66667 1.1665L9.33333 1.1665C9.65417 1.1665 9.92882 1.28074 10.1573 1.50921C10.3858 1.73768 10.5 2.01234 10.5 2.33317L10.5 11.6665C10.5 11.9873 10.3858 12.262 10.1573 12.4905C9.92882 12.7189 9.65417 12.8332 9.33333 12.8332L4.66667 12.8332C4.34583 12.8332 4.07118 12.7189 3.84271 12.4905C3.61424 12.262 3.5 11.9873 3.5 11.6665L3.5 2.33317ZM4.66667 2.33317L4.66667 11.6665L9.33333 11.6665L9.33333 9.9165L7.58333 9.9165C7.41806 9.9165 7.27951 9.8606 7.16771 9.7488C7.0559 9.63699 7 9.49845 7 9.33317C7 9.16789 7.0559 9.02935 7.16771 8.91755C7.27951 8.80574 7.41806 8.74984 7.58333 8.74984L9.33333 8.74984L9.33333 7.58317L7.58333 7.58317C7.41806 7.58317 7.27951 7.52727 7.16771 7.41546C7.0559 7.30366 7 7.16512 7 6.99984C7 6.83456 7.0559 6.69602 7.16771 6.58421C7.27951 6.47241 7.41806 6.4165 7.58333 6.4165L9.33333 6.4165L9.33333 5.24984L7.58333 5.24984C7.41806 5.24984 7.27951 5.19393 7.16771 5.08213C7.0559 4.97032 7 4.83178 7 4.6665C7 4.50123 7.0559 4.36268 7.16771 4.25088C7.27951 4.13907 7.41806 4.08317 7.58333 4.08317L9.33333 4.08317L9.33333 2.33317L4.66667 2.33317Z" fill="#848484"/>
</g>
</svg>
