<svg width="14" height="14" viewBox="0 0 14 14" fill="none" xmlns="http://www.w3.org/2000/svg">
<mask id="mask0_1344_18915" style="mask-type:alpha" maskUnits="userSpaceOnUse" x="0" y="0" width="14" height="14">
<rect width="14" height="14" fill="#D9D9D9"/>
</mask>
<g mask="url(#mask0_1344_18915)">
<path d="M5.8332 11.666H3.49987C3.33459 11.666 3.19605 11.6101 3.08424 11.4983C2.97244 11.3865 2.91654 11.248 2.91654 11.0827V6.99938H1.92487C1.78876 6.99938 1.6964 6.93619 1.64779 6.8098C1.59918 6.68341 1.62834 6.57647 1.73529 6.48897L6.60612 2.09938C6.71306 1.99244 6.84431 1.93896 6.99987 1.93896C7.15543 1.93896 7.28668 1.99244 7.39362 2.09938L9.3332 3.84938V2.62438C9.3332 2.5466 9.36237 2.47855 9.4207 2.42021C9.47904 2.36188 9.54709 2.33271 9.62487 2.33271H10.7915C10.8693 2.33271 10.9374 2.36188 10.9957 2.42021C11.054 2.47855 11.0832 2.5466 11.0832 2.62438V5.42438L12.2645 6.48897C12.3714 6.57647 12.4006 6.68341 12.352 6.8098C12.3033 6.93619 12.211 6.99938 12.0749 6.99938H11.0832V11.0827C11.0832 11.248 11.0273 11.3865 10.9155 11.4983C10.8037 11.6101 10.6651 11.666 10.4999 11.666H8.16654V8.74938C8.16654 8.5841 8.11063 8.44556 7.99883 8.33376C7.88702 8.22195 7.74848 8.16605 7.5832 8.16605H6.41654C6.25126 8.16605 6.11272 8.22195 6.00091 8.33376C5.88911 8.44556 5.8332 8.5841 5.8332 8.74938V11.666Z" fill="#848484"/>
</g>
</svg>
