<svg width="24" height="25" viewBox="0 0 24 25" fill="none" xmlns="http://www.w3.org/2000/svg">
<path d="M11 12.293C11 12.8453 11.4477 13.293 12 13.293C12.5523 13.293 13 12.8453 13 12.293C13 11.7407 12.5523 11.293 12 11.293C11.4477 11.293 11 11.7407 11 12.293Z" stroke="#4F4D5E" stroke-width="2" stroke-linecap="round" stroke-linejoin="round"/>
<path d="M18 12.293C18 12.8453 18.4477 13.293 19 13.293C19.5523 13.293 20 12.8453 20 12.293C20 11.7407 19.5523 11.293 19 11.293C18.4477 11.293 18 11.7407 18 12.293Z" stroke="#4F4D5E" stroke-width="2" stroke-linecap="round" stroke-linejoin="round"/>
<path d="M4 12.293C4 12.8453 4.44772 13.293 5 13.293C5.55228 13.293 6 12.8453 6 12.293C6 11.7407 5.55228 11.293 5 11.293C4.44772 11.293 4 11.7407 4 12.293Z" stroke="#4F4D5E" stroke-width="2" stroke-linecap="round" stroke-linejoin="round"/>
</svg>
