<svg width="21" height="15" viewBox="0 0 21 15" fill="none" xmlns="http://www.w3.org/2000/svg">
<g clip-path="url(#clip0_1309_8432)">
<path fill-rule="evenodd" clip-rule="evenodd" d="M7.59109 5.67908L0.584411 1.19992C0.330636 1.02653 0.409179 0.864299 0.46133 0.795349C0.725066 0.446957 1.16594 0.217392 1.66296 0.217392H19.7445C20.1999 0.217392 20.6081 0.410083 20.8762 0.710389C20.9432 0.785466 20.9975 0.983185 20.7701 1.16137L13.7728 5.62129C13.5745 5.75133 13.4608 5.71526 13.4153 5.68752C13.1256 5.51113 12.7812 5.40762 12.4114 5.40768C11.4145 5.40768 11.0131 6.30437 10.8128 6.75195C10.7461 6.90082 10.7017 7 10.6651 7C10.6351 6.99999 10.5991 6.91299 10.5439 6.77967C10.363 6.34259 9.97612 5.40766 8.91878 5.40762C8.5286 5.40762 8.16653 5.52275 7.86733 5.71723C7.83104 5.74081 7.75357 5.77664 7.59109 5.67908ZM20.9938 2.6866C20.9938 2.6866 21.1957 2.56534 21.1957 2.85432C21.1957 5.57615 21.2036 13.7416 21.2036 13.7416C21.2036 14.4727 20.547 15.0709 19.7444 15.0709H1.66282C0.860321 15.0709 0.203613 14.4727 0.203613 13.7416V2.8182C0.203613 2.8182 0.231846 2.65683 0.393945 2.7604C1.81077 3.66554 4.55549 5.4249 6.87722 6.91447C6.87706 6.91641 6.88553 6.92183 6.89882 6.93033C6.94618 6.96065 7.05471 7.03013 7.05169 7.1204C7.03411 7.63195 7.20985 7.95965 7.46471 8.31208C7.97391 9.01592 10.2002 12 10.6684 12C11.1465 12 13.3528 9.02199 13.8653 8.31208C14.1208 7.95809 14.2871 7.57132 14.2711 7.05959C14.269 6.99377 14.3227 6.96319 14.3747 6.93353C14.3916 6.92387 14.4084 6.91431 14.423 6.90366L20.9938 2.6866Z" fill="url(#paint0_linear_1309_8432)" fill-opacity="0.75"/>
</g>
<defs>
<linearGradient id="paint0_linear_1309_8432" x1="-7.20609" y1="12.5245" x2="19.5882" y2="12.5245" gradientUnits="userSpaceOnUse">
<stop stop-color="#215AC8"/>
<stop offset="1" stop-color="#7225AF"/>
</linearGradient>
<clipPath id="clip0_1309_8432">
<rect width="21" height="15" fill="white"/>
</clipPath>
</defs>
</svg>
