<svg width="25" height="25" viewBox="0 0 25 25" fill="none" xmlns="http://www.w3.org/2000/svg">
<mask id="mask0_1182_4657" style="mask-type:alpha" maskUnits="userSpaceOnUse" x="0" y="0" width="25" height="25">
<rect x="0.77832" y="0.468414" width="24" height="24" fill="#D9D9D9"/>
</mask>
<g mask="url(#mask0_1182_4657)">
<path d="M12.7783 22.4684C11.0117 22.4684 9.56999 22.1892 8.45332 21.6309C7.33665 21.0726 6.77832 20.3517 6.77832 19.4684C6.77832 18.8851 7.01999 18.3767 7.50332 17.9434C7.98665 17.5101 8.65332 17.1684 9.50332 16.9184L10.0783 18.8184C9.79499 18.9017 9.53665 19.0059 9.30332 19.1309C9.06999 19.2559 8.91165 19.3684 8.82832 19.4684C9.04499 19.7351 9.54499 19.9684 10.3283 20.1684C11.1117 20.3684 11.9283 20.4684 12.7783 20.4684C13.6283 20.4684 14.4492 20.3684 15.2408 20.1684C16.0325 19.9684 16.5367 19.7351 16.7533 19.4684C16.67 19.3684 16.5117 19.2559 16.2783 19.1309C16.045 19.0059 15.7867 18.9017 15.5033 18.8184L16.0783 16.9184C16.9283 17.1684 17.5908 17.5101 18.0658 17.9434C18.5408 18.3767 18.7783 18.8851 18.7783 19.4684C18.7783 20.3517 18.22 21.0726 17.1033 21.6309C15.9867 22.1892 14.545 22.4684 12.7783 22.4684ZM12.7783 19.4684C12.595 19.4684 12.4283 19.4142 12.2783 19.3059C12.1283 19.1976 12.02 19.0517 11.9533 18.8684C11.57 17.6851 11.0867 16.6934 10.5033 15.8934C9.91999 15.0934 9.35332 14.3267 8.80332 13.5934C8.26999 12.8601 7.80749 12.1017 7.41582 11.3184C7.02415 10.5351 6.82832 9.56841 6.82832 8.41841C6.82832 6.75175 7.40332 5.34341 8.55332 4.19341C9.70332 3.04341 11.1117 2.46841 12.7783 2.46841C14.445 2.46841 15.8533 3.04341 17.0033 4.19341C18.1533 5.34341 18.7283 6.75175 18.7283 8.41841C18.7283 9.56841 18.5367 10.5351 18.1533 11.3184C17.77 12.1017 17.3033 12.8601 16.7533 13.5934C16.22 14.3267 15.6575 15.0934 15.0658 15.8934C14.4742 16.6934 13.9867 17.6851 13.6033 18.8684C13.5367 19.0517 13.4283 19.1976 13.2783 19.3059C13.1283 19.4142 12.9617 19.4684 12.7783 19.4684ZM12.7783 10.5434C13.3617 10.5434 13.8617 10.3351 14.2783 9.91841C14.695 9.50175 14.9033 9.00175 14.9033 8.41841C14.9033 7.83508 14.695 7.33508 14.2783 6.91841C13.8617 6.50175 13.3617 6.29341 12.7783 6.29341C12.195 6.29341 11.695 6.50175 11.2783 6.91841C10.8617 7.33508 10.6533 7.83508 10.6533 8.41841C10.6533 9.00175 10.8617 9.50175 11.2783 9.91841C11.695 10.3351 12.195 10.5434 12.7783 10.5434Z" fill="url(#paint0_linear_1182_4657)" fill-opacity="0.75"/>
</g>
<defs>
<linearGradient id="paint0_linear_1182_4657" x1="2.54421" y1="19.0398" x2="17.8552" y2="19.0398" gradientUnits="userSpaceOnUse">
<stop stop-color="#215AC8"/>
<stop offset="1" stop-color="#7225AF"/>
</linearGradient>
</defs>
</svg>
