<svg width="193" height="63" viewBox="0 0 193 63" fill="none" xmlns="http://www.w3.org/2000/svg">
<path d="M38.9716 17.05H38.9005C38.673 18.4852 38.4171 19.8199 38.1327 21.0542C37.8483 22.2884 37.3649 23.4222 36.6825 24.4556C36 25.4889 35.0616 26.3787 33.8673 27.125C32.673 27.8713 31.0521 28.4741 29.0047 28.9333C28.2085 29.1056 27.2133 29.2347 26.019 29.3208C24.8246 29.4069 23.673 29.4787 22.564 29.5361C21.455 29.5935 20.4455 29.6222 19.5355 29.6222H18V21.4417C18 19.3176 18.0142 17.0644 18.0427 14.6819C18.0711 12.2995 18.1137 10.1037 18.1706 8.09444C18.2275 7.06111 18.2844 6.18565 18.3412 5.46806C18.3981 4.75046 18.455 4.16204 18.5118 3.70278C18.5687 3.24352 18.6398 2.84167 18.7251 2.49722C18.8104 2.15278 18.8815 1.80833 18.9384 1.46389C19.2227 1.46389 19.6635 1.44954 20.2607 1.42083C20.8578 1.39213 21.4976 1.36343 22.1801 1.33472C22.8626 1.30602 23.5735 1.27731 24.3128 1.24861C25.0521 1.21991 25.7062 1.20556 26.2749 1.20556C29.6303 1.20556 32.5735 1.36343 35.1043 1.67917C37.6351 1.99491 39.3839 2.38241 40.3507 2.84167C42.3412 3.81759 44.3886 5.33889 46.4929 7.40556C48.5972 9.47222 50.8152 11.9694 53.1469 14.8972L54 14.4667L48.1991 0H0.767772V0.861111C2.30332 1.09074 3.5545 1.33472 4.52133 1.59306C5.48815 1.85139 6.3981 2.43981 7.25118 3.35833C7.59242 3.70278 7.86256 4.2625 8.06161 5.0375C8.26066 5.8125 8.40284 6.68796 8.48815 7.66389C8.57346 8.63981 8.63033 9.67315 8.65877 10.7639C8.6872 11.8546 8.70142 12.9167 8.70142 13.95V35.7361C8.70142 37.4583 8.6872 39.1375 8.65877 40.7736C8.63033 42.4097 8.6019 43.9167 8.57346 45.2944C8.54502 46.6722 8.53081 47.763 8.53081 48.5667C8.53081 49.4852 8.50237 50.4181 8.4455 51.3653C8.38863 52.3125 8.2891 53.2167 8.14692 54.0778C8.00474 54.9389 7.84834 55.6995 7.67773 56.3597C7.50711 57.0199 7.27962 57.5222 6.99526 57.8667C6.19905 58.7852 5.18957 59.5028 3.96682 60.0194C2.74408 60.5361 1.4218 60.9093 0 61.1389V62H27.2986V61.1389C24.9668 61.0241 23.1896 60.7514 21.9668 60.3208C20.7441 59.8903 19.8768 59.2731 19.3649 58.4694C18.8531 57.6657 18.5261 56.4458 18.3839 54.8097C18.2417 53.1736 18.1422 51.437 18.0853 49.6C18.0853 48.6241 18.0711 47.4616 18.0427 46.1125C18.0142 44.7634 18 43.2852 18 41.6778V31H22.0948C22.6635 31 23.2607 31.0144 23.8863 31.0431C24.5118 31.0718 25.2512 31.1148 26.1043 31.1722C27.7536 31.287 29.1896 31.5884 30.4123 32.0764C31.6351 32.5644 32.7867 33.2963 33.8673 34.2722C35.0616 35.363 36.0853 36.9273 36.9384 38.9653C37.7915 41.0032 38.4455 42.9407 38.9005 44.7778C39.7536 34.2435 46.4218 30.4785 54 30.3255C45.3744 30.5025 39.5166 24.7904 38.9716 17.05Z" fill="white"/>
<path d="M68.4295 54.576V36.912C68.4295 34.608 68.2162 32.944 67.7895 31.92C67.3628 30.896 66.6375 30.384 65.6135 30.384C64.5042 30.384 63.0962 31.024 61.3895 32.304C59.6828 33.584 57.5495 35.6747 54.9895 38.576C54.4775 39.1307 53.9442 39.4293 53.3895 39.472C52.8348 39.472 52.3868 39.2587 52.0455 38.832C51.7042 38.3627 51.5975 37.7653 51.7255 37.04L52.5575 31.664C54.0508 30.9387 55.9495 30.2773 58.2535 29.68C60.6002 29.0827 62.7335 28.784 64.6535 28.784C68.0668 28.784 70.7122 29.8293 72.5895 31.92C74.4668 33.968 75.3842 37.2747 75.3415 41.84L75.2775 53.616L76.8135 62H69.9015L68.4295 54.576ZM56.9735 62.704C54.3282 62.704 52.3015 62 50.8935 60.592C49.4855 59.1413 48.7815 57.328 48.7815 55.152C48.7815 53.6587 49.1655 52.2933 49.9335 51.056C50.7442 49.8187 51.9175 48.6453 53.4535 47.536C55.0322 46.4267 57.0802 45.2533 59.5975 44.016L61.7735 42.928L70.0295 39.088V40.944L63.2455 44.144C60.7282 45.3387 58.7868 46.5973 57.4215 47.92C56.0562 49.2 55.3735 50.6507 55.3735 52.272C55.3735 53.7653 55.9068 55.024 56.9735 56.048C58.0402 57.072 59.4482 57.584 61.1975 57.584C62.5628 57.584 63.9282 57.2427 65.2935 56.56C66.6588 55.8347 67.7895 54.8747 68.6855 53.68L69.2615 54.576C67.8962 56.9653 66.1895 58.928 64.1415 60.464C62.1362 61.9573 59.7468 62.704 56.9735 62.704Z" fill="white"/>
<path d="M96.4035 62.832C93.4168 62.832 90.7502 62.1493 88.4035 60.784C86.0568 59.4187 84.2222 57.52 82.8995 55.088C81.6195 52.6133 80.9795 49.8613 80.9795 46.832C80.9795 43.5467 81.7262 40.5173 83.2195 37.744C84.7555 34.9707 86.8248 32.7947 89.4275 31.216C92.0302 29.5947 94.8675 28.784 97.9395 28.784C99.6035 28.784 101.268 29.0187 102.932 29.488C104.596 29.9147 105.854 30.448 106.708 31.088L107.731 37.424C107.859 38.064 107.732 38.5973 107.348 39.024C107.006 39.408 106.558 39.6 106.004 39.6C105.492 39.5573 105.022 39.2587 104.596 38.704C102.548 36.3147 100.585 34.5867 98.7075 33.52C96.8302 32.4107 95.0808 31.856 93.4595 31.856C91.9662 31.856 90.6648 32.24 89.5555 33.008C88.4888 33.776 87.6782 34.8213 87.1235 36.144C86.5688 37.4667 86.2915 38.9387 86.2915 40.56C86.2915 43.2053 86.8888 45.872 88.0835 48.56C89.3208 51.248 91.0275 53.4667 93.2035 55.216C95.3795 56.9653 97.7902 57.84 100.436 57.84C101.844 57.84 103.166 57.6053 104.404 57.136C105.684 56.624 106.814 55.9627 107.796 55.152L108.628 55.92C106.836 58.1813 105.022 59.9093 103.188 61.104C101.395 62.256 99.1342 62.832 96.4035 62.832Z" fill="white"/>
<path d="M126.963 62.832C124.062 62.832 121.438 62.1493 119.091 60.784C116.787 59.4187 114.974 57.52 113.651 55.088C112.371 52.656 111.731 49.8827 111.731 46.768C111.731 43.5253 112.456 40.5387 113.907 37.808C115.358 35.0773 117.299 32.9013 119.731 31.28C122.206 29.616 124.958 28.784 127.987 28.784C130.419 28.784 132.552 29.3173 134.387 30.384C136.264 31.4507 137.694 32.8587 138.675 34.608C139.699 36.3573 140.211 38.2773 140.211 40.368C140.211 41.6907 139.998 42.672 139.571 43.312C139.144 43.9093 138.611 44.2933 137.971 44.464C137.331 44.6347 136.478 44.72 135.411 44.72H116.979V42.864H135.731L132.979 44.272L133.043 42.736C133.043 40.9013 132.766 39.088 132.211 37.296C131.656 35.4613 130.782 33.9467 129.587 32.752C128.435 31.5573 127.006 30.96 125.299 30.96C123.763 30.96 122.44 31.408 121.331 32.304C120.264 33.2 119.432 34.4587 118.835 36.08C118.238 37.7013 117.939 39.5573 117.939 41.648C117.939 44.1653 118.408 46.704 119.347 49.264C120.328 51.824 121.8 53.9787 123.763 55.728C125.768 57.4773 128.2 58.352 131.059 58.352C132.51 58.352 133.896 58.0747 135.219 57.52C136.584 56.9653 137.843 56.1547 138.995 55.088L139.763 55.984C138.099 58.16 136.222 59.8453 134.131 61.04C132.083 62.2347 129.694 62.832 126.963 62.832Z" fill="white"/>
<path d="M153.137 62.832C150.748 62.832 148.956 62.0853 147.762 60.592C146.567 59.056 145.969 56.4747 145.969 52.848L146.033 31.472H142.962V30.384L152.753 20.976V29.616H165.426V31.472H152.753V55.92C152.753 57.968 152.881 59.3547 153.137 60.08C153.393 60.7627 153.799 61.104 154.354 61.104C155.079 61.104 156.103 60.3573 157.426 58.864C158.748 57.328 160.178 55.216 161.714 52.528C162.012 52.016 162.396 51.7173 162.866 51.632C163.378 51.504 163.804 51.6107 164.146 51.952C164.53 52.2507 164.721 52.72 164.721 53.36V59.44C163.015 60.3787 161.116 61.1893 159.025 61.872C156.935 62.512 154.972 62.832 153.137 62.832Z" fill="white"/>
<path d="M181.857 62.832C179.51 62.832 177.228 62.448 175.009 61.68C172.79 60.912 170.892 60.0373 169.313 59.056L168.417 53.296C168.332 52.6987 168.417 52.2293 168.673 51.888C168.972 51.504 169.356 51.312 169.825 51.312C170.294 51.2693 170.742 51.4187 171.169 51.76C173.644 53.936 176.332 55.7493 179.233 57.2C182.177 58.6507 184.652 59.376 186.657 59.376C187.766 59.376 188.662 59.1413 189.345 58.672C190.07 58.16 190.433 57.4347 190.433 56.496C190.433 55.7707 190.134 55.0667 189.537 54.384C188.982 53.7013 187.937 52.848 186.401 51.824C184.908 50.8 182.689 49.456 179.745 47.792C177.484 46.4693 175.67 45.3387 174.305 44.4C172.982 43.4613 171.873 42.3733 170.977 41.136C170.124 39.8987 169.697 38.4693 169.697 36.848C169.697 34.5013 170.657 32.5813 172.577 31.088C174.497 29.552 177.206 28.784 180.705 28.784C183.478 28.784 186.657 29.3387 190.241 30.448L190.945 35.248C191.073 35.9733 190.988 36.5707 190.689 37.04C190.433 37.4667 190.028 37.68 189.473 37.68C188.961 37.68 188.449 37.4453 187.937 36.976C185.846 35.2693 183.777 33.8613 181.729 32.752C179.724 31.6 177.996 31.024 176.545 31.024C175.564 31.024 174.753 31.2587 174.113 31.728C173.473 32.1973 173.153 32.7947 173.153 33.52C173.153 34.672 173.964 35.9093 175.585 37.232C177.206 38.5547 179.361 39.92 182.049 41.328C185.889 43.376 188.641 45.3387 190.305 47.216C192.012 49.0933 192.865 51.2053 192.865 53.552C192.865 56.3253 191.884 58.5653 189.921 60.272C188.001 61.9787 185.313 62.832 181.857 62.832Z" fill="white"/>
</svg>
