<svg width="55" height="62" viewBox="0 0 55 62" fill="none" xmlns="http://www.w3.org/2000/svg">
<path d="M39.4716 17.05H39.4005C39.173 18.4852 38.9171 19.8199 38.6327 21.0542C38.3483 22.2884 37.8649 23.4222 37.1825 24.4556C36.5 25.4889 35.5616 26.3787 34.3673 27.125C33.173 27.8713 31.5521 28.4741 29.5047 28.9333C28.7085 29.1056 27.7133 29.2347 26.519 29.3208C25.3246 29.4069 24.173 29.4787 23.064 29.5361C21.955 29.5935 20.9455 29.6222 20.0355 29.6222H18.5V21.4417C18.5 19.3176 18.5142 17.0644 18.5427 14.6819C18.5711 12.2995 18.6137 10.1037 18.6706 8.09444C18.7275 7.06111 18.7844 6.18565 18.8412 5.46806C18.8981 4.75046 18.955 4.16204 19.0118 3.70278C19.0687 3.24352 19.1398 2.84167 19.2251 2.49722C19.3104 2.15278 19.3815 1.80833 19.4384 1.46389C19.7227 1.46389 20.1635 1.44954 20.7607 1.42083C21.3578 1.39213 21.9976 1.36343 22.6801 1.33472C23.3626 1.30602 24.0735 1.27731 24.8128 1.24861C25.5521 1.21991 26.2062 1.20556 26.7749 1.20556C30.1303 1.20556 33.0735 1.36343 35.6043 1.67917C38.1351 1.99491 39.8839 2.38241 40.8507 2.84167C42.8412 3.81759 44.8886 5.33889 46.9929 7.40556C49.0972 9.47222 51.3152 11.9694 53.6469 14.8972L54.5 14.4667L48.699 0H1.26777V0.861111C2.80332 1.09074 4.0545 1.33472 5.02133 1.59306C5.98815 1.85139 6.8981 2.43981 7.75118 3.35833C8.09242 3.70278 8.36256 4.2625 8.56161 5.0375C8.76066 5.8125 8.90284 6.68796 8.98815 7.66389C9.07346 8.63981 9.13033 9.67315 9.15877 10.7639C9.1872 11.8546 9.20142 12.9167 9.20142 13.95V35.7361C9.20142 37.4583 9.1872 39.1375 9.15877 40.7736C9.13033 42.4097 9.1019 43.9167 9.07346 45.2944C9.04502 46.6722 9.03081 47.763 9.03081 48.5667C9.03081 49.4852 9.00237 50.4181 8.9455 51.3653C8.88863 52.3125 8.7891 53.2167 8.64692 54.0778C8.50474 54.9389 8.34834 55.6995 8.17773 56.3597C8.00711 57.0199 7.77962 57.5222 7.49526 57.8667C6.69905 58.7852 5.68957 59.5028 4.46682 60.0194C3.24408 60.5361 1.9218 60.9093 0.5 61.1389V62H27.7986V61.1389C25.4668 61.0241 23.6896 60.7514 22.4668 60.3208C21.2441 59.8903 20.3768 59.2731 19.8649 58.4694C19.3531 57.6657 19.0261 56.4458 18.8839 54.8097C18.7417 53.1736 18.6422 51.437 18.5853 49.6C18.5853 48.6241 18.5711 47.4616 18.5427 46.1125C18.5142 44.7634 18.5 43.2852 18.5 41.6778V31H22.5948C23.1635 31 23.7607 31.0144 24.3863 31.0431C25.0118 31.0718 25.7512 31.1148 26.6043 31.1722C28.2536 31.287 29.6896 31.5884 30.9123 32.0764C32.1351 32.5644 33.2867 33.2963 34.3673 34.2722C35.5616 35.363 36.5853 36.9273 37.4384 38.9653C38.2915 41.0032 38.9455 42.9407 39.4005 44.7778C40.2536 34.2435 46.9218 30.4785 54.5 30.3255C45.8744 30.5025 40.0166 24.7904 39.4716 17.05Z" fill="white"/>
</svg>
