<svg width="14" height="14" viewBox="0 0 14 14" fill="none" xmlns="http://www.w3.org/2000/svg">
<mask id="mask0_1344_18995" style="mask-type:alpha" maskUnits="userSpaceOnUse" x="0" y="0" width="14" height="14">
<rect width="14" height="14" fill="#D9D9D9"/>
</mask>
<g mask="url(#mask0_1344_18995)">
<path d="M1.64783 5.55641L3.57283 2.08558C3.63116 1.97864 3.70408 1.90086 3.79158 1.85225C3.87908 1.80364 3.9763 1.77933 4.08325 1.77933C4.19019 1.77933 4.28741 1.80364 4.37491 1.85225C4.46241 1.90086 4.53533 1.97864 4.59366 2.08558L6.51866 5.55641C6.56728 5.65364 6.58915 5.75086 6.58429 5.84808C6.57943 5.9453 6.55269 6.03766 6.50408 6.12516C6.45547 6.21266 6.38741 6.28315 6.29991 6.33662C6.21241 6.39009 6.11519 6.41683 6.00825 6.41683H2.15825C2.0513 6.41683 1.95408 6.39009 1.86658 6.33662C1.77908 6.28315 1.71103 6.21266 1.66241 6.12516C1.6138 6.03766 1.58707 5.9453 1.58221 5.84808C1.57734 5.75086 1.59922 5.65364 1.64783 5.55641ZM4.08325 12.2502C3.44158 12.2502 2.89228 12.0217 2.43533 11.5647C1.97839 11.1078 1.74991 10.5585 1.74991 9.91683C1.74991 9.27516 1.97839 8.72586 2.43533 8.26891C2.89228 7.81197 3.44158 7.5835 4.08325 7.5835C4.72491 7.5835 5.27422 7.81197 5.73116 8.26891C6.18811 8.72586 6.41658 9.27516 6.41658 9.91683C6.41658 10.5585 6.18811 11.1078 5.73116 11.5647C5.27422 12.0217 4.72491 12.2502 4.08325 12.2502ZM7.58325 11.6668V8.16683C7.58325 8.00155 7.63915 7.86301 7.75096 7.7512C7.86276 7.6394 8.0013 7.5835 8.16658 7.5835H11.6666C11.8319 7.5835 11.9704 7.6394 12.0822 7.7512C12.194 7.86301 12.2499 8.00155 12.2499 8.16683V11.6668C12.2499 11.8321 12.194 11.9706 12.0822 12.0825C11.9704 12.1943 11.8319 12.2502 11.6666 12.2502H8.16658C8.0013 12.2502 7.86276 12.1943 7.75096 12.0825C7.63915 11.9706 7.58325 11.8321 7.58325 11.6668ZM9.53741 6.096L8.7645 5.43975C8.09366 4.87586 7.63186 4.43107 7.37908 4.10537C7.1263 3.77968 6.99991 3.41752 6.99991 3.01891C6.99991 2.58141 7.15304 2.21197 7.45929 1.91058C7.76554 1.60919 8.14714 1.4585 8.60408 1.4585C8.86658 1.4585 9.11207 1.51926 9.34054 1.64079C9.56901 1.76232 9.76103 1.93002 9.91658 2.14391C10.0721 1.93002 10.2642 1.76232 10.4926 1.64079C10.7211 1.51926 10.9666 1.4585 11.2291 1.4585C11.686 1.4585 12.0676 1.60919 12.3739 1.91058C12.6801 2.21197 12.8332 2.58141 12.8332 3.01891C12.8332 3.41752 12.7069 3.77968 12.4541 4.10537C12.2013 4.43107 11.7395 4.87586 11.0687 5.43975L10.2957 6.096C10.1888 6.19322 10.0624 6.24183 9.91658 6.24183C9.77075 6.24183 9.64436 6.19322 9.53741 6.096Z" fill="#848484"/>
</g>
</svg>
