<svg width="39" height="38" viewBox="0 0 39 38" fill="none" xmlns="http://www.w3.org/2000/svg">
<path d="M20.5857 1.34945L20.8697 2.30827V2.30827L20.5857 1.34945ZM22.108 1.50946L22.5852 0.630642L22.5852 0.630642L22.108 1.50946ZM8.97643 4.78827L9.26045 5.74709L8.97643 4.78827ZM7.78683 5.75159L6.90801 5.27443V5.27443L7.78683 5.75159ZM2.00946 16.3922L2.88828 16.8693L2.88828 16.8693L2.00946 16.3922ZM1.84945 17.9145L0.890634 18.1985H0.890634L1.84945 17.9145ZM5.28827 29.5238L4.32945 29.8078L5.28827 29.5238ZM6.25159 30.7134L5.77443 31.5922H5.77443L6.25159 30.7134ZM16.8922 36.4907L17.3693 35.6119L17.3693 35.6119L16.8922 36.4907ZM18.4145 36.6507L18.6985 37.6096H18.6985L18.4145 36.6507ZM27.6887 33.9036L27.8625 32.9188L27.6306 32.8779L27.4047 32.9448L27.6887 33.9036ZM34.1637 35.0462L34.3374 34.0615L34.1637 35.0462ZM35.2816 33.7321L36.2258 33.4026L35.2816 33.7321ZM33.3751 28.2672L32.4963 27.7901L32.2851 28.1789L32.4309 28.5967L33.3751 28.2672ZM36.9907 21.608L36.1119 21.1309L36.9907 21.608ZM37.1507 20.0857L38.1096 19.8017V19.8017L37.1507 20.0857ZM33.7119 8.47643L32.7531 8.76044V8.76045L33.7119 8.47643ZM32.7486 7.28683L32.2715 8.16564V8.16564L32.7486 7.28683ZM20.8697 2.30827C21.124 2.23295 21.3978 2.26173 21.6309 2.38828L22.5852 0.630642C21.886 0.250991 21.0645 0.164657 20.3017 0.390634L20.8697 2.30827ZM9.26045 5.74709L20.8697 2.30827L20.3017 0.390634L8.69241 3.82945L9.26045 5.74709ZM8.66564 6.22875C8.79219 5.99567 9.00615 5.82241 9.26045 5.74709L8.69241 3.82945C7.92953 4.05543 7.28766 4.5752 6.90801 5.27443L8.66564 6.22875ZM2.88828 16.8693L8.66564 6.22875L6.90801 5.27443L1.13064 15.915L2.88828 16.8693ZM2.80827 17.6305C2.73295 17.3762 2.76173 17.1024 2.88828 16.8693L1.13064 15.915C0.750991 16.6142 0.664658 17.4357 0.890634 18.1985L2.80827 17.6305ZM6.24709 29.2398L2.80827 17.6305L0.890634 18.1985L4.32945 29.8078L6.24709 29.2398ZM6.72875 29.8346C6.49567 29.708 6.32241 29.494 6.24709 29.2398L4.32945 29.8078C4.55543 30.5707 5.0752 31.2125 5.77443 31.5922L6.72875 29.8346ZM17.3693 35.6119L6.72875 29.8346L5.77443 31.5922L16.415 37.3696L17.3693 35.6119ZM18.1305 35.6919C17.8762 35.7673 17.6024 35.7385 17.3693 35.6119L16.415 37.3696C17.1142 37.7492 17.9357 37.8355 18.6985 37.6096L18.1305 35.6919ZM27.4047 32.9448L18.1305 35.6919L18.6985 37.6096L27.9727 34.8624L27.4047 32.9448ZM27.5149 34.8884L33.9899 36.031L34.3374 34.0615L27.8625 32.9188L27.5149 34.8884ZM33.9899 36.031C35.4945 36.2965 36.7291 34.8452 36.2258 33.4026L34.3374 34.0615H34.3374L33.9899 36.031ZM36.2258 33.4026L34.3193 27.9378L32.4309 28.5967L34.3374 34.0615L36.2258 33.4026ZM36.1119 21.1309L32.4963 27.7901L34.2539 28.7444L37.8696 22.0852L36.1119 21.1309ZM36.1919 20.3697C36.2673 20.624 36.2385 20.8978 36.1119 21.1309L37.8696 22.0852C38.2492 21.386 38.3355 20.5645 38.1096 19.8017L36.1919 20.3697ZM32.7531 8.76045L36.1919 20.3697L38.1096 19.8017L34.6707 8.19241L32.7531 8.76045ZM32.2715 8.16564C32.5045 8.29219 32.6778 8.50615 32.7531 8.76044L34.6707 8.19242C34.4448 7.42953 33.925 6.78766 33.2258 6.40801L32.2715 8.16564ZM21.6309 2.38828L32.2715 8.16564L33.2258 6.40801L22.5852 0.630642L21.6309 2.38828Z" fill="var(--text)"/>
</svg>
