<svg width="39" height="38" viewBox="0 0 39 38" fill="none" xmlns="http://www.w3.org/2000/svg">
<path fill-rule="evenodd" clip-rule="evenodd" d="M22.1075 1.50922C21.6414 1.25611 21.0938 1.19856 20.5852 1.34921L8.97594 4.78803C8.46735 4.93868 8.03944 5.28519 7.78634 5.75135L2.00897 16.3919C1.75587 16.8581 1.69831 17.4057 1.84897 17.9143L5.28778 29.5235C5.43843 30.0321 5.78495 30.46 6.2511 30.7131L16.8917 36.4905C17.3578 36.7436 17.9054 36.8012 18.414 36.6505L27.6882 33.9034L34.1632 35.046C34.9155 35.1788 35.5328 34.4531 35.2811 33.7318L33.3746 28.267L36.9903 21.6078C37.2434 21.1416 37.3009 20.594 37.1503 20.0854L33.7114 8.47619C33.5608 7.9676 33.2143 7.53968 32.7481 7.28658L22.1075 1.50922Z" fill="#734498"/>
<path d="M20.5852 1.34921L20.8692 2.30803V2.30803L20.5852 1.34921ZM22.1075 1.50922L22.5847 0.630398L22.5847 0.630398L22.1075 1.50922ZM8.97594 4.78803L9.25996 5.74685L8.97594 4.78803ZM7.78634 5.75135L6.90752 5.27419V5.27419L7.78634 5.75135ZM2.00897 16.3919L2.88779 16.8691L2.88779 16.8691L2.00897 16.3919ZM1.84897 17.9143L0.890146 18.1983H0.890146L1.84897 17.9143ZM5.28778 29.5235L4.32896 29.8075L5.28778 29.5235ZM6.2511 30.7131L5.77394 31.5919H5.77394L6.2511 30.7131ZM16.8917 36.4905L17.3688 35.6117L17.3688 35.6117L16.8917 36.4905ZM18.414 36.6505L18.6981 37.6093H18.6981L18.414 36.6505ZM27.6882 33.9034L27.862 32.9186L27.6301 32.8776L27.4042 32.9445L27.6882 33.9034ZM34.1632 35.046L34.337 34.0612L34.1632 35.046ZM35.2811 33.7318L36.2253 33.4024L35.2811 33.7318ZM33.3746 28.267L32.4958 27.7898L32.2847 28.1787L32.4304 28.5964L33.3746 28.267ZM36.9903 21.6078L36.1114 21.1306L36.9903 21.6078ZM37.1503 20.0854L38.1091 19.8014V19.8014L37.1503 20.0854ZM33.7114 8.47619L32.7526 8.7602V8.7602L33.7114 8.47619ZM32.7481 7.28658L32.271 8.1654H32.271L32.7481 7.28658ZM20.8692 2.30803C21.1235 2.2327 21.3973 2.26148 21.6304 2.38803L22.5847 0.630398C21.8855 0.250747 21.0641 0.164413 20.3012 0.39039L20.8692 2.30803ZM9.25996 5.74685L20.8692 2.30803L20.3012 0.39039L8.69193 3.82921L9.25996 5.74685ZM8.66515 6.22851C8.79171 5.99543 9.00566 5.82217 9.25996 5.74685L8.69193 3.82921C7.92904 4.05518 7.28717 4.57496 6.90752 5.27419L8.66515 6.22851ZM2.88779 16.8691L8.66515 6.22851L6.90752 5.27419L1.13015 15.9148L2.88779 16.8691ZM2.80779 17.6303C2.73246 17.376 2.76124 17.1022 2.88779 16.8691L1.13015 15.9148C0.750502 16.614 0.664169 17.4354 0.890146 18.1983L2.80779 17.6303ZM6.2466 29.2395L2.80779 17.6303L0.890146 18.1983L4.32896 29.8075L6.2466 29.2395ZM6.72826 29.8343C6.49519 29.7078 6.32193 29.4938 6.2466 29.2395L4.32896 29.8075C4.55494 30.5704 5.07471 31.2123 5.77394 31.5919L6.72826 29.8343ZM17.3688 35.6117L6.72826 29.8343L5.77394 31.5919L16.4145 37.3693L17.3688 35.6117ZM18.13 35.6917C17.8757 35.767 17.6019 35.7382 17.3688 35.6117L16.4145 37.3693C17.1138 37.749 17.9352 37.8353 18.6981 37.6093L18.13 35.6917ZM27.4042 32.9445L18.13 35.6917L18.6981 37.6093L27.9722 34.8622L27.4042 32.9445ZM27.5144 34.8881L33.9894 36.0308L34.337 34.0612L27.862 32.9186L27.5144 34.8881ZM33.9894 36.0308C35.494 36.2963 36.7286 34.845 36.2253 33.4024L34.337 34.0612H34.337L33.9894 36.0308ZM36.2253 33.4024L34.3188 27.9376L32.4304 28.5964L34.337 34.0612L36.2253 33.4024ZM36.1114 21.1306L32.4958 27.7898L34.2534 28.7442L37.8691 22.0849L36.1114 21.1306ZM36.1914 20.3694C36.2668 20.6237 36.238 20.8975 36.1114 21.1306L37.8691 22.0849C38.2487 21.3857 38.3351 20.5643 38.1091 19.8014L36.1914 20.3694ZM32.7526 8.7602L36.1914 20.3694L38.1091 19.8014L34.6703 8.19217L32.7526 8.7602ZM32.271 8.1654C32.504 8.29195 32.6773 8.50591 32.7526 8.7602L34.6703 8.19217C34.4443 7.42929 33.9245 6.78742 33.2253 6.40777L32.271 8.1654ZM21.6304 2.38803L32.271 8.1654L33.2253 6.40777L22.5847 0.630398L21.6304 2.38803Z" fill="#734498"/>
</svg>
