<svg width="28" height="28" viewBox="0 0 28 28" fill="none" xmlns="http://www.w3.org/2000/svg">
<path fill-rule="evenodd" clip-rule="evenodd" d="M16.1978 0.332392C15.5585 -0.0147172 14.8075 -0.0936508 14.11 0.112956L5.99987 2.51529C5.30238 2.72189 4.71553 3.19712 4.36842 3.83641L0.332392 11.2698C-0.0147173 11.9091 -0.0936507 12.6601 0.112956 13.3576L2.51529 21.4678C2.72189 22.1653 3.19712 22.7521 3.83641 23.0992L11.2698 27.1353C11.9091 27.4824 12.6601 27.5613 13.3576 27.3547L19.7201 25.47L25.0327 26.4075C25.8925 26.5593 26.598 25.7299 26.3104 24.9056L24.7835 20.5291L27.1353 16.1978C27.4824 15.5585 27.5613 14.8075 27.3547 14.11L24.9524 5.99987C24.7457 5.30238 24.2705 4.71553 23.6312 4.36842L16.1978 0.332392ZM8.36847 12.0256C9.37837 12.0256 10.197 12.8442 10.197 13.8541C10.197 14.864 9.37837 15.6827 8.36847 15.6827C7.35858 15.6827 6.5399 14.864 6.5399 13.8541C6.5399 12.8442 7.35858 12.0256 8.36847 12.0256ZM13.8542 15.6827C12.8443 15.6827 12.0256 14.864 12.0256 13.8541C12.0256 12.8442 12.8443 12.0256 13.8542 12.0256C14.8641 12.0256 15.6828 12.8442 15.6828 13.8541C15.6828 14.864 14.8641 15.6827 13.8542 15.6827ZM19.3399 15.6827C18.33 15.6827 17.5113 14.864 17.5113 13.8541C17.5113 12.8442 18.33 12.0256 19.3399 12.0256C20.3498 12.0256 21.1685 12.8442 21.1685 13.8541C21.1685 14.864 20.3498 15.6827 19.3399 15.6827Z" fill="url(#paint0_linear_917_2034)" fill-opacity="0.75"/>
<defs>
<linearGradient id="paint0_linear_917_2034" x1="-9.69176" y1="22.7588" x2="25.3547" y2="22.7588" gradientUnits="userSpaceOnUse">
<stop stop-color="#215AC8"/>
<stop offset="1" stop-color="#7225AF"/>
</linearGradient>
</defs>
</svg>
