<svg width="49" height="50" viewBox="0 0 49 50" fill="none" xmlns="http://www.w3.org/2000/svg">
<path d="M38.5388 13.0492C38.0955 12.2915 37.115 12.0479 36.3687 12.5101L36.2532 12.5817C35.8544 12.8287 35.5758 13.23 35.484 13.69L34.3165 19.536C34.3089 19.574 34.3063 19.6128 34.3085 19.6515V19.6515C34.3343 20.089 34.904 20.2394 35.1423 19.8715L38.5014 14.6868C38.8221 14.1918 38.8366 13.5583 38.5388 13.0492V13.0492ZM25.0106 22.5648C26.1133 22.5037 26.3177 20.9635 25.2691 20.6169L21.6144 19.4088C21.0762 19.2309 20.4869 19.3002 20.0046 19.598L19.7364 19.7636C18.8862 20.2886 18.697 21.4444 19.3354 22.2131V22.2131C19.6682 22.6138 20.1712 22.8331 20.6913 22.8043L25.0106 22.5648ZM22.9781 6.68997C22.7299 6.44171 22.7451 5.97833 22.9002 5.66335C22.917 5.62918 22.9368 5.59167 22.9606 5.55019C23.7434 4.192 23.0536 2.32619 21.4184 1.38263C19.7831 0.439064 17.8224 0.774251 17.0396 2.1305V2.1305C16.7304 2.6643 16.0701 3.11116 15.4961 2.88531C12.0482 1.52881 8.46599 0.914925 5.12909 1.27653C3.30697 1.47399 3.37112 3.66732 5.09333 4.29429C13.5722 7.38105 21.0438 11.837 27.7883 17.2827C29.3093 18.5108 31.3744 17.2054 30.5017 15.4561C28.8209 12.0866 26.3544 9.13397 23.0435 6.74556C23.0203 6.72883 22.9983 6.71019 22.9781 6.68997V6.68997ZM16.351 10.786C14.9183 9.96014 13.0987 10.5291 12.2723 11.9615L1.30938 30.962C0.5792 32.2275 0.509078 33.8974 1.64344 34.8182C2.03768 35.1383 2.48125 35.404 2.9846 35.5945C4.26638 36.0797 5.56235 35.1972 6.24728 34.0101L17.3112 14.8344C18.1306 13.4144 17.7714 11.6048 16.351 10.786V10.786Z" fill="white"/>
<path d="M36.0645 30.2173C38.0369 31.52 40.553 31.8718 44.3404 32.0916C40.9434 33.7808 38.7675 35.0921 37.4649 37.0645C36.1622 39.0369 35.8104 41.553 35.5906 45.3404C33.9014 41.9434 32.5901 39.7675 30.6177 38.4649C28.6453 37.1622 26.1292 36.8104 22.3418 36.5906C25.7388 34.9014 27.9147 33.5901 29.2173 31.6177C30.52 29.6453 30.8718 27.1292 31.0916 23.3418C32.7808 26.7388 34.0921 28.9147 36.0645 30.2173Z" fill="white" stroke="white" stroke-width="2"/>
</svg>
