<svg width="21" height="20" viewBox="0 0 21 20" fill="none" xmlns="http://www.w3.org/2000/svg">
<path d="M9.77832 13.4684V11.4684H11.7783V13.4684H9.77832ZM8.77832 4.46838H12.7783V2.46838H8.77832V4.46838ZM2.77832 19.4684C2.22832 19.4684 1.75749 19.2726 1.36582 18.8809C0.974154 18.4892 0.77832 18.0184 0.77832 17.4684V13.4684H7.77832V14.4684C7.77832 14.7517 7.87415 14.9892 8.06582 15.1809C8.25749 15.3726 8.49499 15.4684 8.77832 15.4684H12.7783C13.0617 15.4684 13.2992 15.3726 13.4908 15.1809C13.6825 14.9892 13.7783 14.7517 13.7783 14.4684V13.4684H20.7783V17.4684C20.7783 18.0184 20.5825 18.4892 20.1908 18.8809C19.7992 19.2726 19.3283 19.4684 18.7783 19.4684H2.77832ZM0.77832 11.4684V6.46838C0.77832 5.91838 0.974154 5.44755 1.36582 5.05588C1.75749 4.66422 2.22832 4.46838 2.77832 4.46838H6.77832V2.46838C6.77832 1.91838 6.97415 1.44755 7.36582 1.05588C7.75749 0.664217 8.22832 0.468384 8.77832 0.468384H12.7783C13.3283 0.468384 13.7992 0.664217 14.1908 1.05588C14.5825 1.44755 14.7783 1.91838 14.7783 2.46838V4.46838H18.7783C19.3283 4.46838 19.7992 4.66422 20.1908 5.05588C20.5825 5.44755 20.7783 5.91838 20.7783 6.46838V11.4684H13.7783V10.4684C13.7783 10.1851 13.6825 9.94755 13.4908 9.75588C13.2992 9.56422 13.0617 9.46838 12.7783 9.46838H8.77832C8.49499 9.46838 8.25749 9.56422 8.06582 9.75588C7.87415 9.94755 7.77832 10.1851 7.77832 10.4684V11.4684H0.77832Z" fill="url(#paint0_linear_1182_4741)" fill-opacity="0.75"/>
<defs>
<linearGradient id="paint0_linear_1182_4741" x1="-6.27854" y1="16.2112" x2="19.2399" y2="16.2112" gradientUnits="userSpaceOnUse">
<stop stop-color="#215AC8"/>
<stop offset="1" stop-color="#7225AF"/>
</linearGradient>
</defs>
</svg>
