<svg width="14" height="14" viewBox="0 0 14 14" fill="none" xmlns="http://www.w3.org/2000/svg">
<mask id="mask0_1344_19014" style="mask-type:alpha" maskUnits="userSpaceOnUse" x="0" y="0" width="14" height="14">
<rect width="14" height="14" fill="#D9D9D9"/>
</mask>
<g mask="url(#mask0_1344_19014)">
<path d="M2.9165 9.33317V6.4165C2.9165 6.25123 2.97241 6.11268 3.08421 6.00088C3.19602 5.88907 3.33456 5.83317 3.49984 5.83317C3.66512 5.83317 3.80366 5.88907 3.91546 6.00088C4.02727 6.11268 4.08317 6.25123 4.08317 6.4165V9.33317C4.08317 9.49845 4.02727 9.63699 3.91546 9.7488C3.80366 9.8606 3.66512 9.9165 3.49984 9.9165C3.33456 9.9165 3.19602 9.8606 3.08421 9.7488C2.97241 9.63699 2.9165 9.49845 2.9165 9.33317ZM6.4165 9.33317V6.4165C6.4165 6.25123 6.47241 6.11268 6.58421 6.00088C6.69602 5.88907 6.83456 5.83317 6.99984 5.83317C7.16512 5.83317 7.30366 5.88907 7.41546 6.00088C7.52727 6.11268 7.58317 6.25123 7.58317 6.4165V9.33317C7.58317 9.49845 7.52727 9.63699 7.41546 9.7488C7.30366 9.8606 7.16512 9.9165 6.99984 9.9165C6.83456 9.9165 6.69602 9.8606 6.58421 9.7488C6.47241 9.63699 6.4165 9.49845 6.4165 9.33317ZM1.74984 12.2498C1.58456 12.2498 1.44602 12.1939 1.33421 12.0821C1.22241 11.9703 1.1665 11.8318 1.1665 11.6665C1.1665 11.5012 1.22241 11.3627 1.33421 11.2509C1.44602 11.1391 1.58456 11.0832 1.74984 11.0832H12.2498C12.4151 11.0832 12.5537 11.1391 12.6655 11.2509C12.7773 11.3627 12.8332 11.5012 12.8332 11.6665C12.8332 11.8318 12.7773 11.9703 12.6655 12.0821C12.5537 12.1939 12.4151 12.2498 12.2498 12.2498H1.74984ZM9.9165 9.33317V6.4165C9.9165 6.25123 9.97241 6.11268 10.0842 6.00088C10.196 5.88907 10.3346 5.83317 10.4998 5.83317C10.6651 5.83317 10.8037 5.88907 10.9155 6.00088C11.0273 6.11268 11.0832 6.25123 11.0832 6.4165V9.33317C11.0832 9.49845 11.0273 9.63699 10.9155 9.7488C10.8037 9.8606 10.6651 9.9165 10.4998 9.9165C10.3346 9.9165 10.196 9.8606 10.0842 9.7488C9.97241 9.63699 9.9165 9.49845 9.9165 9.33317ZM12.2498 4.6665H1.6915C1.54567 4.6665 1.42171 4.61546 1.31963 4.51338C1.21755 4.4113 1.1665 4.28734 1.1665 4.1415V3.82067C1.1665 3.71373 1.19324 3.62137 1.24671 3.54359C1.30018 3.46581 1.37067 3.40261 1.45817 3.354L6.47484 0.845671C6.64012 0.767893 6.81512 0.729004 6.99984 0.729004C7.18456 0.729004 7.35956 0.767893 7.52484 0.845671L12.5123 3.33942C12.6193 3.38803 12.6995 3.46095 12.753 3.55817C12.8064 3.65539 12.8332 3.75748 12.8332 3.86442V4.08317C12.8332 4.24845 12.7773 4.38699 12.6655 4.4988C12.5537 4.6106 12.4151 4.6665 12.2498 4.6665Z" fill="#848484"/>
</g>
</svg>
