<svg width="24" height="25" viewBox="0 0 24 25" fill="none" xmlns="http://www.w3.org/2000/svg">
<mask id="mask0_1184_5003" style="mask-type:alpha" maskUnits="userSpaceOnUse" x="0" y="0" width="24" height="25">
<rect y="0.468384" width="24" height="24" fill="#D9D9D9"/>
</mask>
<g mask="url(#mask0_1184_5003)">
<path d="M12 20.7934C11.7667 20.7934 11.5292 20.7517 11.2875 20.6684C11.0458 20.5851 10.8333 20.4517 10.65 20.2684L8.925 18.6934C7.15833 17.0767 5.5625 15.4726 4.1375 13.8809C2.7125 12.2892 2 10.5351 2 8.61838C2 7.05172 2.525 5.74338 3.575 4.69338C4.625 3.64338 5.93333 3.11838 7.5 3.11838C8.38333 3.11838 9.21667 3.30588 10 3.68088C10.7833 4.05588 11.45 4.56838 12 5.21838C12.55 4.56838 13.2167 4.05588 14 3.68088C14.7833 3.30588 15.6167 3.11838 16.5 3.11838C18.0667 3.11838 19.375 3.64338 20.425 4.69338C21.475 5.74338 22 7.05172 22 8.61838C22 10.5351 21.2917 12.2934 19.875 13.8934C18.4583 15.4934 16.85 17.1017 15.05 18.7184L13.35 20.2684C13.1667 20.4517 12.9542 20.5851 12.7125 20.6684C12.4708 20.7517 12.2333 20.7934 12 20.7934Z" fill="url(#paint0_linear_1184_5003)" fill-opacity="0.75"/>
</g>
<defs>
<linearGradient id="paint0_linear_1184_5003" x1="-5.05686" y1="17.7633" x2="20.4615" y2="17.7633" gradientUnits="userSpaceOnUse">
<stop stop-color="#215AC8"/>
<stop offset="1" stop-color="#7225AF"/>
</linearGradient>
</defs>
</svg>
