<svg width="24" height="25" viewBox="0 0 24 25" fill="none" xmlns="http://www.w3.org/2000/svg">
<mask id="mask0_1141_11012" style="mask-type:alpha" maskUnits="userSpaceOnUse" x="0" y="0" width="24" height="25">
<rect y="0.468414" width="24" height="24" fill="#D9D9D9"/>
</mask>
<g mask="url(#mask0_1141_11012)">
<path d="M8 14.4684H16V13.9184C16 13.1851 15.6333 12.5934 14.9 12.1434C14.1667 11.6934 13.2 11.4684 12 11.4684C10.8 11.4684 9.83333 11.6934 9.1 12.1434C8.36667 12.5934 8 13.1851 8 13.9184V14.4684ZM12 10.4684C12.55 10.4684 13.0208 10.2726 13.4125 9.88091C13.8042 9.48925 14 9.01841 14 8.46841C14 7.91841 13.8042 7.44758 13.4125 7.05591C13.0208 6.66425 12.55 6.46841 12 6.46841C11.45 6.46841 10.9792 6.66425 10.5875 7.05591C10.1958 7.44758 10 7.91841 10 8.46841C10 9.01841 10.1958 9.48925 10.5875 9.88091C10.9792 10.2726 11.45 10.4684 12 10.4684ZM6 18.4684L3.7 20.7684C3.38333 21.0851 3.02083 21.1559 2.6125 20.9809C2.20417 20.8059 2 20.4934 2 20.0434V4.46841C2 3.91841 2.19583 3.44758 2.5875 3.05591C2.97917 2.66425 3.45 2.46841 4 2.46841H20C20.55 2.46841 21.0208 2.66425 21.4125 3.05591C21.8042 3.44758 22 3.91841 22 4.46841V16.4684C22 17.0184 21.8042 17.4892 21.4125 17.8809C21.0208 18.2726 20.55 18.4684 20 18.4684H6Z" fill="url(#paint0_linear_1141_11012)" fill-opacity="0.75"/>
</g>
<defs>
<linearGradient id="paint0_linear_1141_11012" x1="-5.05686" y1="17.8847" x2="20.4615" y2="17.8847" gradientUnits="userSpaceOnUse">
<stop stop-color="#215AC8"/>
<stop offset="1" stop-color="#7225AF"/>
</linearGradient>
</defs>
</svg>
