<svg width="15" height="11" viewBox="0 0 15 11" fill="none" xmlns="http://www.w3.org/2000/svg">
<path fill-rule="evenodd" clip-rule="evenodd" d="M4.6339 1.07323C4.68079 1.02634 4.74438 1 4.81068 1L11.25 1C11.3881 1 11.5 1.11193 11.5 1.25V4.57461L10.3905 3.18765C10.2179 2.97202 9.9033 2.93706 9.68767 3.10957C9.47204 3.28207 9.43708 3.59672 9.60958 3.81235L11.4144 6.06833C11.7146 6.44363 12.2854 6.44363 12.5857 6.06833L14.3904 3.81235C14.563 3.59672 14.528 3.28207 14.3124 3.10957C14.0967 2.93706 13.7821 2.97202 13.6096 3.18765L12.5 4.57461V1.25C12.5 0.559646 11.9404 0 11.25 0H4.81068C4.47915 0 4.16121 0.1317 3.92679 0.366118L2.14646 2.14645C1.9512 2.34171 1.9512 2.65829 2.14646 2.85355C2.34173 3.04882 2.65831 3.04882 2.85357 2.85355L4.6339 1.07323ZM9.86613 9.92678C9.81925 9.97366 9.75566 10 9.68935 10L3.25002 10C3.11195 10 3.00002 9.88807 3.00002 9.75L3.00002 6.42539L4.10958 7.81235C4.28209 8.02798 4.59673 8.06294 4.81236 7.89044C5.028 7.71793 5.06296 7.40328 4.89045 7.18765L3.08567 4.93167C2.78543 4.55637 2.21461 4.55637 1.91437 4.93167L0.109584 7.18765C-0.0629207 7.40328 -0.0279601 7.71793 0.187671 7.89043C0.403302 8.06294 0.717948 8.02798 0.890452 7.81235L2.00002 6.42539L2.00002 9.75C2.00002 10.4404 2.55966 11 3.25002 11L9.68935 11C10.0209 11 10.3388 10.8683 10.5732 10.6339L12.3536 8.85355C12.5488 8.65829 12.5488 8.34171 12.3536 8.14645C12.1583 7.95118 11.8417 7.95118 11.6465 8.14645L9.86613 9.92678Z" fill="#734498"/>
</svg>
