<svg width="14" height="14" viewBox="0 0 14 14" fill="none" xmlns="http://www.w3.org/2000/svg">
<mask id="mask0_1344_18971" style="mask-type:alpha" maskUnits="userSpaceOnUse" x="0" y="0" width="14" height="14">
<rect width="14" height="14" fill="#D9D9D9"/>
</mask>
<g mask="url(#mask0_1344_18971)">
<path d="M7 4.66628C6.53333 4.66628 6.14444 4.50343 5.83333 4.17773C5.52222 3.85204 5.37639 3.45586 5.39583 2.98919C5.41528 2.56141 5.54653 2.17982 5.78958 1.8444C6.03264 1.50898 6.30486 1.20516 6.60625 0.932943C6.66458 0.884332 6.72535 0.847873 6.78854 0.823568C6.85174 0.799262 6.92222 0.787109 7 0.787109C7.07778 0.787109 7.14826 0.799262 7.21146 0.823568C7.27465 0.847873 7.33542 0.884332 7.39375 0.932943C7.69514 1.20516 7.96736 1.50898 8.21042 1.8444C8.45347 2.17982 8.58472 2.56141 8.60417 2.98919C8.62361 3.45586 8.47778 3.85204 8.16667 4.17773C7.85556 4.50343 7.46667 4.66628 7 4.66628ZM11.8125 9.91628C11.9389 9.91628 12.0434 9.87496 12.126 9.79232C12.2087 9.70968 12.25 9.60516 12.25 9.47878C12.25 9.35239 12.2087 9.24787 12.126 9.16523C12.0434 9.08259 11.9389 9.04128 11.8125 9.04128C11.6861 9.04128 11.5816 9.08259 11.499 9.16523C11.4163 9.24787 11.375 9.35239 11.375 9.47878C11.375 9.60516 11.4163 9.70968 11.499 9.79232C11.5816 9.87496 11.6861 9.91628 11.8125 9.91628ZM10.5 12.8329H3.5C3.01389 12.8329 2.60069 12.6628 2.26042 12.3225C1.92014 11.9822 1.75 11.5691 1.75 11.0829V10.4996C1.75 10.3343 1.8059 10.1958 1.91771 10.084C2.02951 9.97218 2.16806 9.91628 2.33333 9.91628H5.25V6.41628C5.25 6.09544 5.36424 5.82079 5.59271 5.59232C5.82118 5.36385 6.09583 5.24961 6.41667 5.24961H7.58333C7.90417 5.24961 8.17882 5.36385 8.40729 5.59232C8.63576 5.82079 8.75 6.09544 8.75 6.41628V9.91628H10.2667C10.2472 9.8385 10.2326 9.76558 10.2229 9.69753C10.2132 9.62947 10.2083 9.55655 10.2083 9.47878C10.2083 9.03155 10.3639 8.65239 10.675 8.34128C10.9861 8.03016 11.3653 7.87461 11.8125 7.87461C12.2597 7.87461 12.6389 8.03016 12.95 8.34128C13.2611 8.65239 13.4167 9.03155 13.4167 9.47878C13.4167 9.84822 13.3073 10.1739 13.0885 10.4559C12.8698 10.7378 12.5903 10.9274 12.25 11.0246V11.0829C12.25 11.5691 12.0799 11.9822 11.7396 12.3225C11.3993 12.6628 10.9861 12.8329 10.5 12.8329Z" fill="#848484"/>
</g>
</svg>
