<svg width="14" height="14" viewBox="0 0 14 14" fill="none" xmlns="http://www.w3.org/2000/svg">
<mask id="mask0_1344_18897" style="mask-type:alpha" maskUnits="userSpaceOnUse" x="0" y="0" width="14" height="14">
<rect width="14" height="14" fill="#D9D9D9"/>
</mask>
<g mask="url(#mask0_1344_18897)">
<path d="M6.60673 3.76584C6.65197 2.43544 5.71164 1.15619 4.08315 1.1665C4.08315 2.9165 5.92107 4.0602 6.60673 3.76584Z" fill="#848484"/>
<path d="M12.08 5.56796C12.1063 5.6348 12.1198 5.66934 12.1243 5.68062C12.1181 5.66503 12.1003 5.61921 12.08 5.56796Z" fill="#848484"/>
<path d="M12.0665 5.53304C12.071 5.54466 12.0755 5.55633 12.08 5.56796C12.0757 5.55652 12.0718 5.54659 12.0665 5.53304C12.0143 5.39952 11.9617 5.2655 12.0665 5.53304C11.7321 4.67857 11.0637 3.97361 10.1901 3.66681C9.24182 3.33412 8.25333 3.52299 7.31473 3.78209C7.29692 3.26934 7.34028 2.75511 7.41313 2.24741C7.45442 1.96091 7.65211 1.36819 7.16171 1.34792C6.75468 1.33103 6.75354 1.87586 6.71392 2.15373C6.63733 2.68676 6.59209 3.22701 6.60673 3.76584C6.38125 3.7283 6.15859 3.64428 5.93401 3.59772C5.59907 3.52863 5.25793 3.48545 4.91566 3.48506C4.2561 3.48506 3.60517 3.65985 3.0624 4.04156C2.00839 4.78318 1.59795 6.07716 1.61579 7.32041C1.6353 8.66657 2.09116 9.95207 2.85812 11.0501C3.19663 11.5348 3.58582 11.9997 4.06685 12.3495C4.53434 12.6893 5.05646 12.8485 5.62329 12.9296C5.86397 12.9643 6.10901 12.9653 6.34893 12.926C6.55845 12.8919 6.75466 12.8034 6.96248 12.7683C7.11946 12.7418 7.34081 12.8654 7.49268 12.8992C7.7516 12.9574 8.018 12.9694 8.28179 12.9393C9.24702 12.8293 10.0117 12.3939 10.6469 11.664C12.0438 10.0586 12.8763 7.60093 12.0665 5.53304ZM4.50114 6.81407C4.00549 6.81407 3.60389 6.41247 3.60389 5.91682C3.60389 5.42117 4.00549 5.01957 4.50114 5.01957C4.99661 5.01957 5.39839 5.42117 5.39839 5.91682C5.39839 6.41247 4.99661 6.81407 4.50114 6.81407Z" fill="#848484"/>
</g>
</svg>
