<svg width="63" height="62" viewBox="0 0 63 62" fill="none" xmlns="http://www.w3.org/2000/svg">
<g clip-path="url(#clip0_1207_6468)">
<path fill-rule="evenodd" clip-rule="evenodd" d="M46.1282 39.8472C53.1655 29.9841 52.2703 16.1774 43.4427 7.31737C33.619 -2.54248 17.6917 -2.54248 7.86781 7.31737C-1.95594 17.1771 -1.95594 33.163 7.86781 43.0228C16.695 51.8825 30.45 52.7813 40.277 45.7194L42.6188 48.0687C42.8732 48.3238 43.2893 48.3238 43.5435 48.0685L43.9164 47.694L58.1303 61.9591C58.3846 62.2143 58.8007 62.2142 59.0549 61.9591L62.3094 58.6922C62.5636 58.437 62.5635 58.0194 62.3092 57.7642L48.0947 43.4984L48.4686 43.1229C48.7229 42.8676 48.7227 42.45 48.4684 42.1949L46.1282 39.8472ZM40.4109 39.9798C32.2747 48.1459 19.0362 48.1459 10.8999 39.9798C2.7635 31.8136 2.7635 18.5265 10.8999 10.3603C19.0361 2.19411 32.2747 2.19411 40.4109 10.3603C48.547 18.5265 48.547 31.8136 40.4109 39.9798ZM55.0007 11C54.6642 11 54.3704 10.7757 54.2809 10.4522C53.5717 7.88217 53.1178 7.42867 50.5485 6.71919C50.2248 6.62936 50 6.33563 50 6C50 5.66402 50.2248 5.36981 50.5485 5.28046C53.1179 4.57109 53.5716 4.11771 54.2809 1.54771C54.3706 1.22379 54.6642 1 55.0007 1C55.3364 1 55.6306 1.22379 55.7201 1.54771C56.4296 4.11759 56.8825 4.57109 59.453 5.28046C59.7765 5.37004 60 5.66413 60 6C60 6.33563 59.7765 6.6296 59.453 6.71919C56.8828 7.42867 56.4297 7.88206 55.7201 10.4522C55.6309 10.7755 55.3364 11 55.0007 11ZM38.4499 25.7139C39.1834 25.5248 39.1833 24.4752 38.4499 24.2861C29.8969 22.0807 28.9193 21.1031 26.7139 12.5501C26.5248 11.8166 25.4752 11.8166 25.2861 12.5501C23.0807 21.1031 22.1031 22.0807 13.5501 24.2861C12.8166 24.4752 12.8166 25.5248 13.5501 25.7139C22.1031 27.9193 23.0807 28.8969 25.2861 37.4499C25.4752 38.1834 26.5248 38.1833 26.7139 37.4499C28.9193 28.8969 29.8969 27.9193 38.4499 25.7139Z" fill="white"/>
</g>
<defs>
<clipPath id="clip0_1207_6468">
<rect width="62" height="62" fill="white" transform="translate(0.5)"/>
</clipPath>
</defs>
</svg>
