<svg width="33" height="33" viewBox="0 0 33 33" fill="none" xmlns="http://www.w3.org/2000/svg">
<path d="M29.0904 4.16053C28.8389 3.90919 28.525 3.72945 28.1809 3.6398C27.8368 3.55016 27.4751 3.55386 27.1329 3.65053H27.1142L3.12167 10.9305C2.73112 11.0428 2.38405 11.2715 2.12667 11.586C1.8693 11.9005 1.71383 12.2859 1.68098 12.691C1.64814 13.096 1.73946 13.5015 1.94279 13.8533C2.14613 14.2052 2.45182 14.4867 2.81917 14.6605L13.5217 19.7293L18.5904 30.4318C18.7505 30.7745 19.0052 31.0643 19.3246 31.267C19.644 31.4696 20.0147 31.5767 20.3929 31.5755C20.4504 31.5755 20.5079 31.573 20.5654 31.568C20.9691 31.5353 21.353 31.38 21.6658 31.1228C21.9786 30.8657 22.2053 30.519 22.3154 30.1293L29.5904 6.13678C29.5904 6.13053 29.5904 6.12428 29.5904 6.11803C29.6883 5.77673 29.6936 5.41552 29.6058 5.0715C29.5179 4.72748 29.34 4.41306 29.0904 4.16053ZM20.4042 29.5568L20.3979 29.5743L15.4779 19.188L21.3829 13.2818C21.5625 13.0927 21.6612 12.841 21.6579 12.5802C21.6545 12.3194 21.5495 12.0703 21.3651 11.8859C21.1807 11.7015 20.9315 11.5964 20.6707 11.5931C20.41 11.5897 20.1582 11.6884 19.9692 11.868L14.0629 17.773L3.67542 12.853H3.69292L27.6754 5.57553L20.4042 29.5568Z" fill="#4F4D5E"/>
</svg>
