<svg width="14" height="14" viewBox="0 0 14 14" fill="none" xmlns="http://www.w3.org/2000/svg">
<mask id="mask0_1344_18885" style="mask-type:alpha" maskUnits="userSpaceOnUse" x="0" y="0" width="14" height="14">
<rect width="14" height="14" fill="#D9D9D9"/>
</mask>
<g mask="url(#mask0_1344_18885)">
<path d="M0.554167 7.75833C0.379167 7.40833 0.243056 7.05347 0.145833 6.69375C0.0486111 6.33403 0 5.96944 0 5.6C0 4.51111 0.369444 3.59722 1.10833 2.85833C1.84722 2.11944 2.76111 1.75 3.85 1.75C4.4625 1.75 5.04583 1.87882 5.6 2.13646C6.15417 2.3941 6.62083 2.75139 7 3.20833C7.37917 2.75139 7.84583 2.3941 8.4 2.13646C8.95417 1.87882 9.5375 1.75 10.15 1.75C11.2389 1.75 12.1528 2.11944 12.8917 2.85833C13.6306 3.59722 14 4.51111 14 5.6C14 5.96944 13.9514 6.33403 13.8542 6.69375C13.7569 7.05347 13.6208 7.40833 13.4458 7.75833C13.3389 7.57361 13.2125 7.40833 13.0667 7.2625C12.9208 7.11667 12.7507 7 12.5562 6.9125C12.6437 6.68889 12.7118 6.47014 12.7604 6.25625C12.809 6.04236 12.8333 5.82361 12.8333 5.6C12.8333 4.84167 12.5757 4.20486 12.0604 3.68958C11.5451 3.17431 10.9083 2.91667 10.15 2.91667C9.3625 2.91667 8.75729 3.13299 8.33438 3.56562C7.91146 3.99826 7.46667 4.48194 7 5.01667C6.53333 4.47222 6.08854 3.98611 5.66563 3.55833C5.24271 3.13056 4.6375 2.91667 3.85 2.91667C3.09167 2.91667 2.45486 3.17431 1.93958 3.68958C1.42431 4.20486 1.16667 4.84167 1.16667 5.6C1.16667 5.82361 1.19097 6.04236 1.23958 6.25625C1.28819 6.47014 1.35625 6.68889 1.44375 6.9125C1.24931 7 1.07917 7.11667 0.933333 7.2625C0.7875 7.40833 0.661111 7.57361 0.554167 7.75833ZM0 12.25V11.9146C0 11.4868 0.216319 11.1441 0.648958 10.8865C1.0816 10.6288 1.64306 10.5 2.33333 10.5C2.45972 10.5 2.58125 10.5024 2.69792 10.5073C2.81458 10.5122 2.92639 10.5243 3.03333 10.5437C2.89722 10.7382 2.79514 10.9472 2.72708 11.1708C2.65903 11.3944 2.625 11.6326 2.625 11.8854V12.8333H0.583333C0.418056 12.8333 0.279514 12.7774 0.167708 12.6656C0.0559028 12.5538 0 12.4153 0 12.25ZM3.5 12.25V11.8854C3.5 11.2535 3.82326 10.7431 4.46979 10.3542C5.11632 9.96528 5.95972 9.77083 7 9.77083C8.05 9.77083 8.89583 9.96528 9.5375 10.3542C10.1792 10.7431 10.5 11.2535 10.5 11.8854V12.25C10.5 12.4153 10.4441 12.5538 10.3323 12.6656C10.2205 12.7774 10.0819 12.8333 9.91667 12.8333H4.08333C3.91806 12.8333 3.77951 12.7774 3.66771 12.6656C3.5559 12.5538 3.5 12.4153 3.5 12.25ZM11.375 12.8333V11.8854C11.375 11.6326 11.3434 11.3944 11.2802 11.1708C11.217 10.9472 11.1222 10.7382 10.9958 10.5437C11.1028 10.5243 11.2122 10.5122 11.324 10.5073C11.4358 10.5024 11.55 10.5 11.6667 10.5C12.3667 10.5 12.9306 10.6288 13.3583 10.8865C13.7861 11.1441 14 11.4868 14 11.9146V12.25C14 12.4153 13.9441 12.5538 13.8323 12.6656C13.7205 12.7774 13.5819 12.8333 13.4167 12.8333H11.375ZM2.33333 9.91667C2.0125 9.91667 1.73785 9.80243 1.50937 9.57396C1.2809 9.34549 1.16667 9.07083 1.16667 8.75C1.16667 8.41944 1.2809 8.14236 1.50937 7.91875C1.73785 7.69514 2.0125 7.58333 2.33333 7.58333C2.66389 7.58333 2.94097 7.69514 3.16458 7.91875C3.38819 8.14236 3.5 8.41944 3.5 8.75C3.5 9.07083 3.38819 9.34549 3.16458 9.57396C2.94097 9.80243 2.66389 9.91667 2.33333 9.91667ZM11.6667 9.91667C11.3458 9.91667 11.0712 9.80243 10.8427 9.57396C10.6142 9.34549 10.5 9.07083 10.5 8.75C10.5 8.41944 10.6142 8.14236 10.8427 7.91875C11.0712 7.69514 11.3458 7.58333 11.6667 7.58333C11.9972 7.58333 12.2743 7.69514 12.4979 7.91875C12.7215 8.14236 12.8333 8.41944 12.8333 8.75C12.8333 9.07083 12.7215 9.34549 12.4979 9.57396C12.2743 9.80243 11.9972 9.91667 11.6667 9.91667ZM7 9.33333C6.51389 9.33333 6.10069 9.16319 5.76042 8.82292C5.42014 8.48264 5.25 8.06944 5.25 7.58333C5.25 7.0875 5.42014 6.67188 5.76042 6.33646C6.10069 6.00104 6.51389 5.83333 7 5.83333C7.49583 5.83333 7.91146 6.00104 8.24687 6.33646C8.58229 6.67188 8.75 7.0875 8.75 7.58333C8.75 8.06944 8.58229 8.48264 8.24687 8.82292C7.91146 9.16319 7.49583 9.33333 7 9.33333Z" fill="#848484"/>
</g>
</svg>
