<svg width="62" height="62" viewBox="0 0 62 62" fill="none" xmlns="http://www.w3.org/2000/svg">
<g clip-path="url(#clip0_1301_8371)">
<path fill-rule="evenodd" clip-rule="evenodd" d="M29.6081 0.949012C29.6081 0.424797 30.0329 0 30.5572 0C31.0814 0 31.5062 0.424797 31.5062 0.949012V5.11464C31.5062 5.63885 31.0814 6.06365 30.5572 6.06365C30.0329 6.06365 29.6081 5.63885 29.6081 5.11464V0.949012ZM29.6081 56.8854C29.6081 56.3611 30.0329 55.9364 30.5572 55.9364C31.0814 55.9364 31.5062 56.3611 31.5062 56.8854V61.051C31.5062 61.5752 31.0814 62 30.5572 62C30.0329 62 29.6081 61.5752 29.6081 61.051V56.8854ZM5.05312 30.051H0.949012C0.424797 30.051 0 30.4758 0 31C0 31.5242 0.424797 31.949 0.949012 31.949H5.05312C5.57734 31.949 6.00213 31.5242 6.00213 31C6.00213 30.4758 5.57721 30.051 5.05312 30.051ZM56.0613 30.051H60.1653C60.6895 30.051 61.1143 30.4758 61.1143 31C61.1143 31.5242 60.6895 31.949 60.1653 31.949H56.0613C55.5371 31.949 55.1123 31.5242 55.1123 31C55.1123 30.4758 55.5371 30.051 56.0613 30.051ZM11.847 48.6379L8.94483 51.5834C8.57695 51.9566 8.58155 52.5576 8.95488 52.9255C9.13979 53.1076 9.38029 53.1984 9.6209 53.1984C9.86611 53.1984 10.1112 53.1038 10.297 52.9155L13.1991 49.9701C13.567 49.5969 13.5624 48.9959 13.189 48.628C12.8158 48.2601 12.215 48.2645 11.847 48.6379ZM49.267 13.3623C49.0814 13.5506 48.8363 13.6452 48.591 13.6452C48.3506 13.6452 48.1099 13.5544 47.9249 13.3723C47.5517 13.0045 47.5473 12.4036 47.9152 12.0304L50.8176 9.08518C51.1855 8.71185 51.7865 8.70737 52.1597 9.07525C52.5329 9.44301 52.5373 10.0439 52.1694 10.4171L49.267 13.3623ZM49.267 48.6379C48.899 48.2642 48.2984 48.26 47.925 48.628C47.5518 48.9959 47.5475 49.5966 47.9153 49.9698L50.8177 52.9151C51.0035 53.1036 51.2485 53.1979 51.4937 53.1979C51.7342 53.1979 51.9749 53.1071 52.1598 52.9249C52.533 52.557 52.5374 51.9562 52.1695 51.583L49.267 48.6379ZM8.95526 9.07465C9.32835 8.70688 9.92909 8.711 10.2972 9.0847L13.1995 12.0299C13.5672 12.4031 13.5628 13.004 13.1894 13.3719C13.0046 13.554 12.7639 13.6448 12.5234 13.6448C12.2782 13.6448 12.0331 13.5505 11.8473 13.362L8.9452 10.4166C8.57744 10.0434 8.58192 9.44253 8.95526 9.07465Z" fill="white"/>
<path d="M35.7872 26.2128C38.0725 28.498 41.4368 29.5887 46.8963 31C41.4368 32.4113 38.0725 33.502 35.7873 35.7872C33.502 38.0725 32.4113 41.4368 31 46.8963C29.5887 41.4368 28.498 38.0725 26.2128 35.7873C23.9275 33.502 20.5632 32.4113 15.1037 31C20.5632 29.5887 23.9275 28.498 26.2128 26.2128C28.498 23.9275 29.5887 20.5632 31 15.1037C32.4113 20.5632 33.502 23.9275 35.7872 26.2128Z" fill="white" stroke="white" stroke-width="2"/>
</g>
<defs>
<clipPath id="clip0_1301_8371">
<rect width="62" height="62" fill="white"/>
</clipPath>
</defs>
</svg>
