<svg width="16" height="15" viewBox="0 0 16 15" fill="none" xmlns="http://www.w3.org/2000/svg">
<path d="M12.3478 4.38889C11.5361 4.38889 9.50691 6.41111 8.01881 7.86944C5.77699 10.0472 3.65113 12.1667 1.95044 12.1667H0.90683C0.481658 12.1667 0.133789 11.8167 0.133789 11.3889C0.133789 10.9611 0.481658 10.6111 0.90683 10.6111H1.95044C3.03269 10.6111 5.19721 8.43333 6.93655 6.74167C9.06241 4.68056 10.8984 2.83333 12.3478 2.83333H13.3528L12.2899 1.80278C11.9806 1.49167 11.9806 1.04444 12.2899 0.733333C12.5991 0.422222 13.0822 0.422222 13.3914 0.733333L15.7685 3.125C15.9232 3.28056 16.0005 3.475 16.0005 3.66944C16.0005 3.88333 15.9232 4.07778 15.7685 4.21389L13.3721 6.60556C13.2175 6.76111 13.0242 6.81944 12.831 6.81944C12.6377 6.81944 12.4445 6.74167 12.2899 6.58611C11.9806 6.275 11.9806 5.76944 12.2899 5.47778L13.3528 4.38889H12.3478ZM13.3721 8.39444C13.0629 8.08333 12.5798 8.08333 12.2705 8.39444C11.9613 8.70555 11.9613 9.21111 12.2705 9.52222L13.3335 10.6111H12.3285C11.6908 10.6111 10.6278 9.65833 9.58422 8.68611C9.275 8.39444 8.79185 8.39444 8.48263 8.70556C8.19274 9.01667 8.21207 9.54167 8.52128 9.83333C10.1447 11.3306 11.2269 12.1667 12.3478 12.1667H13.3528L12.2899 13.1972C11.9806 13.5083 11.9806 13.975 12.2899 14.2861C12.4445 14.4417 12.6377 14.5 12.831 14.5C13.0242 14.5 13.2175 14.4222 13.3721 14.2667L15.7492 11.875C15.9038 11.7194 15.9811 11.525 15.9811 11.3306C15.9811 11.1167 15.9038 10.9222 15.7492 10.7861L13.3721 8.39444ZM0.90683 4.38889H1.95044C2.76213 4.38889 3.97967 5.43889 4.94597 6.31389C5.10058 6.45 5.27451 6.52778 5.46777 6.52778C5.68036 6.52778 5.89294 6.45 6.04755 6.275C6.33744 5.96389 6.31812 5.43889 5.98957 5.14722C4.48214 3.76667 3.20663 2.81389 1.95044 2.81389H0.90683C0.481658 2.81389 0.133789 3.16389 0.133789 3.59167C0.133789 4.01944 0.481658 4.38889 0.90683 4.38889Z" fill="black"/>
</svg>
