<svg width="14" height="14" viewBox="0 0 14 14" fill="none" xmlns="http://www.w3.org/2000/svg">
<mask id="mask0_1344_18979" style="mask-type:alpha" maskUnits="userSpaceOnUse" x="0" y="0" width="14" height="14">
<rect width="14" height="14" fill="#D9D9D9"/>
</mask>
<g mask="url(#mask0_1344_18979)">
<path d="M2.0415 11.0832C1.79845 11.0832 1.59185 10.9981 1.42171 10.828C1.25157 10.6578 1.1665 10.4512 1.1665 10.2082C1.1665 9.96512 1.25157 9.75852 1.42171 9.58838C1.59185 9.41824 1.79845 9.33317 2.0415 9.33317H9.479C9.60539 9.33317 9.70991 9.37449 9.79255 9.45713C9.87519 9.53977 9.9165 9.64428 9.9165 9.77067V10.6457C9.9165 10.7721 9.87519 10.8766 9.79255 10.9592C9.70991 11.0419 9.60539 11.0832 9.479 11.0832H2.0415ZM10.9373 11.0832C10.8109 11.0832 10.7064 11.0419 10.6238 10.9592C10.5412 10.8766 10.4998 10.7721 10.4998 10.6457V9.77067C10.4998 9.64428 10.5412 9.53977 10.6238 9.45713C10.7064 9.37449 10.8109 9.33317 10.9373 9.33317C11.0637 9.33317 11.1682 9.37449 11.2509 9.45713C11.3335 9.53977 11.3748 9.64428 11.3748 9.77067V10.6457C11.3748 10.7721 11.3335 10.8766 11.2509 10.9592C11.1682 11.0419 11.0637 11.0832 10.9373 11.0832ZM12.3957 11.0832C12.2693 11.0832 12.1648 11.0419 12.0821 10.9592C11.9995 10.8766 11.9582 10.7721 11.9582 10.6457V9.77067C11.9582 9.64428 11.9995 9.53977 12.0821 9.45713C12.1648 9.37449 12.2693 9.33317 12.3957 9.33317C12.5221 9.33317 12.6266 9.37449 12.7092 9.45713C12.7919 9.53977 12.8332 9.64428 12.8332 9.77067V10.6457C12.8332 10.7721 12.7919 10.8766 12.7092 10.9592C12.6266 11.0419 12.5221 11.0832 12.3957 11.0832ZM10.9373 8.74984C10.8109 8.74984 10.7064 8.70852 10.6238 8.62588C10.5412 8.54324 10.4998 8.43873 10.4998 8.31234V7.9915C10.4998 7.61234 10.388 7.3231 10.1644 7.1238C9.94081 6.92449 9.67345 6.82484 9.36234 6.82484H8.45817C7.91373 6.82484 7.45192 6.63525 7.07275 6.25609C6.69359 5.87692 6.504 5.41512 6.504 4.87067C6.504 4.32623 6.69359 3.86442 7.07275 3.48525C7.45192 3.10609 7.91373 2.9165 8.45817 2.9165C8.58456 2.9165 8.68907 2.95782 8.77171 3.04046C8.85435 3.1231 8.89567 3.22762 8.89567 3.354C8.89567 3.48039 8.85435 3.58491 8.77171 3.66755C8.68907 3.75018 8.58456 3.7915 8.45817 3.7915C8.1665 3.7915 7.91373 3.89359 7.69984 4.09775C7.48595 4.30192 7.379 4.55956 7.379 4.87067C7.379 5.18178 7.48595 5.43942 7.69984 5.64359C7.91373 5.84775 8.1665 5.94984 8.45817 5.94984H9.36234C9.90678 5.94984 10.3783 6.12484 10.7769 6.47484C11.1755 6.82484 11.3748 7.26234 11.3748 7.78734V8.31234C11.3748 8.43873 11.3335 8.54324 11.2509 8.62588C11.1682 8.70852 11.0637 8.74984 10.9373 8.74984ZM12.3957 8.74984C12.2693 8.74984 12.1648 8.70852 12.0821 8.62588C11.9995 8.54324 11.9582 8.43873 11.9582 8.31234V7.43734C11.9582 6.79567 11.7346 6.2415 11.2873 5.77484C10.8401 5.30817 10.2859 5.07484 9.62484 5.07484C9.49845 5.07484 9.39394 5.03352 9.3113 4.95088C9.22866 4.86824 9.18734 4.76373 9.18734 4.63734C9.18734 4.51095 9.22866 4.40643 9.3113 4.3238C9.39394 4.24116 9.49845 4.19984 9.62484 4.19984C9.9165 4.19984 10.1693 4.09289 10.3832 3.879C10.5971 3.66512 10.704 3.41234 10.704 3.12067C10.704 2.829 10.5971 2.57623 10.3832 2.36234C10.1693 2.14845 9.9165 2.0415 9.62484 2.0415C9.49845 2.0415 9.39394 2.00018 9.3113 1.91755C9.22866 1.83491 9.18734 1.73039 9.18734 1.604C9.18734 1.47762 9.22866 1.3731 9.3113 1.29046C9.39394 1.20782 9.49845 1.1665 9.62484 1.1665C10.1693 1.1665 10.6311 1.35609 11.0103 1.73525C11.3894 2.11442 11.579 2.57623 11.579 3.12067C11.579 3.40262 11.5255 3.65782 11.4186 3.8863C11.3116 4.11477 11.1707 4.32623 10.9957 4.52067C11.5401 4.77345 11.9825 5.16234 12.3228 5.68734C12.663 6.21234 12.8332 6.79567 12.8332 7.43734V8.31234C12.8332 8.43873 12.7919 8.54324 12.7092 8.62588C12.6266 8.70852 12.5221 8.74984 12.3957 8.74984Z" fill="#848484"/>
</g>
</svg>
